<svg xmlns="http://www.w3.org/2000/svg" xmlns:xlink="http://www.w3.org/1999/xlink" width="750" height="750" viewBox="0 0 750 750">
  <defs>
    <linearGradient id="linear-gradient" x1="0.5" x2="0.5" y2="1" gradientUnits="objectBoundingBox">
      <stop offset="0" stop-color="#ffd7c2"/>
      <stop offset="1" stop-color="#ffa5a5"/>
    </linearGradient>
    <clipPath id="clip-金刚区卡片默认icon_6">
      <rect width="750" height="750"/>
    </clipPath>
  </defs>
  <g id="金刚区卡片默认icon_6" data-name="金刚区卡片默认icon – 6" clip-path="url(#clip-金刚区卡片默认icon_6)">
    <g id="组_8683" data-name="组 8683" transform="translate(-90 -1413.056)">
      <g id="组_6680" data-name="组 6680" transform="translate(90.188 1413.056)">
        <g id="组_6673" data-name="组 6673" transform="translate(0 0)">
          <rect id="矩形_426" data-name="矩形 426" width="750" height="750" transform="translate(0 0)" fill="none"/>
        </g>
      </g>
      <g id="展示报告" transform="translate(90 1538.746)">
        <g id="plant_16_" transform="translate(564.481 93.398)">
          <path id="Path" d="M94.2,69.967c-9.54,16.546-58.563,68.161-66.112,57.4-3.729-5.317,14.229-25.37,32.025-94.449C66.355,8.688,82.863-8.318,98.044,4.921,112.533,17.554,103.741,53.42,94.2,69.967Z" transform="translate(14.355 -0.297)" fill="#1b90fb"/>
          <path id="Path-2" data-name="Path" d="M27.1,120.142a.344.344,0,0,1-.092-.625C27.359,119.3,62.1,97.17,86.865,17.97a.343.343,0,1,1,.654.206C74.539,59.691,58.893,85.182,48.051,99.255,36.286,114.529,27.459,120.049,27.37,120.1A.348.348,0,0,1,27.1,120.142Z" transform="translate(13.964 8.846)" fill="#f3f9ff"/>
          <path id="Path-3" data-name="Path" d="M97.634,35.468C78.526,50.895,20.4,122.155,30.118,137.442S133.333,90.184,152.44,74.757,176.423,34.735,163,24.346C141.837,7.966,116.741,20.041,97.634,35.468Z" transform="translate(15.109 8.211)" fill="#9e95e3"/>
          <path id="Path-4" data-name="Path" d="M28.569,131.708a.353.353,0,0,1-.126-.063.343.343,0,0,1-.055-.482A508.747,508.747,0,0,1,63.534,92.471c19.35-19.3,48.722-45.437,78.759-60.35a.344.344,0,0,1,.3.616c-29.952,14.871-59.26,40.952-78.573,60.214a508.234,508.234,0,0,0-35.1,38.639A.344.344,0,0,1,28.569,131.708Z" transform="translate(14.733 16.374)" fill="#f3f9ff"/>
          <path id="Path-5" data-name="Path" d="M101.05,67.63C83.629,70.979,27.5,97.911,30.96,110.763s84.795,13.563,102.216,10.213,30.772-12.529,23.533-34.1C150.011,66.926,118.472,64.28,101.05,67.63Z" transform="translate(16.04 34.373)" fill="#1b90fb"/>
          <path id="Path-6" data-name="Path" d="M.195,124.272a.318.318,0,0,1-.085-.113.341.341,0,0,1,.16-.457,508.286,508.286,0,0,1,48.48-19.49c25.82-8.927,63.636-19.636,97.164-19.954a.343.343,0,0,1,.006.686c-33.433.316-71.168,11-96.938,19.913A506.941,506.941,0,0,0,.568,124.321.345.345,0,0,1,.195,124.272Z" transform="translate(-0.076 43.733)" fill="#f3f9ff"/>
        </g>
        <g id="cog_5_" transform="translate(0 273.877)">
          <path id="Shape" d="M169.958,45.962A7.618,7.618,0,0,0,161.44,41.4l-11.254,2.228a7.636,7.636,0,0,1-7.192-2.426,71.725,71.725,0,0,0-6.026-6.054,7.639,7.639,0,0,1-2.408-7.184l2.223-11.245a7.628,7.628,0,0,0-4.559-8.526L115.609,1.3a7.617,7.617,0,0,0-9.246,2.8L99.991,13.63a7.636,7.636,0,0,1-6.778,3.376,71.7,71.7,0,0,0-8.537.015,7.625,7.625,0,0,1-6.8-3.374L71.5,4.106a7.613,7.613,0,0,0-9.246-2.8L45.634,8.193a7.627,7.627,0,0,0-4.559,8.526L43.3,27.982a7.651,7.651,0,0,1-2.423,7.2,71.7,71.7,0,0,0-6.048,6.032,7.624,7.624,0,0,1-7.177,2.411L16.419,41.4A7.618,7.618,0,0,0,7.9,45.961L1.019,62.592a7.632,7.632,0,0,0,2.8,9.255l9.515,6.378a7.647,7.647,0,0,1,3.372,6.784,71.968,71.968,0,0,0,.015,8.545,7.635,7.635,0,0,1-3.371,6.8l-9.532,6.389A7.63,7.63,0,0,0,1.019,116L7.9,132.633a7.617,7.617,0,0,0,8.518,4.563l11.253-2.229a7.635,7.635,0,0,1,7.192,2.426,71.93,71.93,0,0,0,6.026,6.054A7.635,7.635,0,0,1,43.3,150.63l-2.223,11.245a7.628,7.628,0,0,0,4.559,8.526l16.615,6.889a7.615,7.615,0,0,0,9.246-2.8l6.372-9.525a7.636,7.636,0,0,1,6.778-3.377,71.541,71.541,0,0,0,8.537-.014,7.624,7.624,0,0,1,6.8,3.373l6.383,9.541a7.615,7.615,0,0,0,9.246,2.8l16.615-6.889a7.627,7.627,0,0,0,4.559-8.526l-2.227-11.265a7.648,7.648,0,0,1,2.423-7.2,71.929,71.929,0,0,0,6.048-6.032,7.624,7.624,0,0,1,7.177-2.411l11.235,2.224a7.618,7.618,0,0,0,8.518-4.563L176.838,116a7.63,7.63,0,0,0-2.8-9.255l-9.515-6.378a7.647,7.647,0,0,1-3.372-6.784,71.993,71.993,0,0,0-.015-8.545,7.636,7.636,0,0,1,3.37-6.8l9.532-6.389a7.631,7.631,0,0,0,2.8-9.255ZM103.507,124.53a38.127,38.127,0,1,1,20.617-49.822A38.084,38.084,0,0,1,103.507,124.53Z" transform="translate(-0.438 -0.722)" fill="#e7f4fe"/>
        </g>
        <g id="plant_15_" transform="translate(28.367 17.755)">
          <path id="Path-7" data-name="Path" d="M75.7,90.759c19.432-1.651,98.837,17.057,99.607,35.161.38,8.944-29.409,3.023-89.054,37.2-20.919,11.985-47.427,5.38-54.125-24.191C25.737,110.706,56.268,92.409,75.7,90.759Z" transform="translate(16.161 47.231)" fill="#44d690"/>
          <path id="Path-8" data-name="Path" d="M169.051,117.585a.328.328,0,0,1-.32,0c-.119-.064-12-6.442-32.7-8.564-19.109-1.959-49.851-.59-87.795,17.057a.331.331,0,0,1-.439-.16.315.315,0,0,1,.161-.439c38.1-17.72,68.981-19.087,88.178-17.112,20.82,2.142,32.795,8.573,32.915,8.637a.331.331,0,0,1,.131.45A.314.314,0,0,1,169.051,117.585Z" transform="translate(24.811 56.162)" fill="#f3f9ff"/>
          <path id="Path-9" data-name="Path" d="M72.02,136.866c28.076,11.108,128.387,25.1,128.268.631S70.71,48.142,42.633,37.034-5.255,39.9,1.473,64.978C12.081,104.507,43.943,125.757,72.02,136.866Z" transform="translate(-0.154 17.088)" fill="#8ae6b9"/>
          <path id="Path-10" data-name="Path" d="M192.743,123.161a.341.341,0,0,1-.2.04c-.973-.119-98.188-12.509-171.674-60.44a.331.331,0,0,1,.361-.556c73.356,47.847,170.423,60.219,171.394,60.338a.331.331,0,0,1,.288.369A.336.336,0,0,1,192.743,123.161Z" transform="translate(10.629 32.283)" fill="#f3f9ff"/>
          <path id="Path-11" data-name="Path" d="M82.806,101.319c19.038,18.848,90.256,66.432,94.753,51.7S103.178,36.98,84.14,18.133s-37.678-27.911-43.822-1.4C34.632,41.267,63.767,82.472,82.806,101.319Z" transform="translate(20.53 -0.203)" fill="#ffcb01"/>
          <path id="Path-12" data-name="Path" d="M171.236,141.206a.332.332,0,0,1-.366-.027C170.193,140.651,102.521,87.626,56.237,27a.331.331,0,0,1,.063-.464.327.327,0,0,1,.463.062C103,87.157,170.6,140.128,171.278,140.657a.33.33,0,0,1,.056.463A.308.308,0,0,1,171.236,141.206Z" transform="translate(29.221 13.569)" fill="#f3f9ff"/>
        </g>
        <g id="presentation" transform="translate(124.76 0)">
          <path id="Path-13" data-name="Path" d="M517.043,58.739H22.874A22.473,22.473,0,0,1,.411,36.255h0A22.473,22.473,0,0,1,22.874,13.771h494.17a22.473,22.473,0,0,1,22.462,22.484h0A22.474,22.474,0,0,1,517.043,58.739Z" transform="translate(-0.411 -13.771)" fill="#fff" opacity="0.521"/>
          <path id="Path-14" data-name="Path" d="M489.856,358.041H34.606a19.469,19.469,0,0,1-19.459-19.479V43.27h494.17V338.561A19.471,19.471,0,0,1,489.856,358.041Z" transform="translate(7.316 1.699)" fill="#fff" opacity="0.437"/>
          <rect id="Rectangle" width="494.169" height="11.241" transform="translate(22.463 44.968)" fill="#fff"/>
        </g>
        <g id="man_on_ladder_2_" transform="translate(100.505 185.741)">
          <rect id="Rectangle-2" data-name="Rectangle" width="82.027" height="6.582" transform="translate(8.888 27.292)" fill="#183168"/>
          <rect id="Rectangle-3" data-name="Rectangle" width="80.631" height="6.582" transform="translate(10.835 80.188)" fill="#183168"/>
          <rect id="Rectangle-4" data-name="Rectangle" width="82.724" height="6.582" transform="translate(8.191 148.471)" fill="#183168"/>
          <rect id="Rectangle-5" data-name="Rectangle" width="70.167" height="6.582" transform="translate(9.368 210.615)" fill="#183168"/>
          <rect id="Rectangle-6" data-name="Rectangle" width="81.328" height="6.582" transform="translate(9.316 341.869)" fill="#183168"/>
          <rect id="Rectangle-7" data-name="Rectangle" width="81.328" height="6.582" transform="translate(8.888 271.818)" fill="#183168"/>
          <rect id="Rectangle-8" data-name="Rectangle" width="6.576" height="395.563" transform="translate(5.421 0)" fill="#183168"/>
          <rect id="Rectangle-9" data-name="Rectangle" width="6.576" height="395.563" transform="translate(85.534 0)" fill="#183168"/>
          <path id="Path-15" data-name="Path" d="M25.432,178.977l-3.263,9.5s-6.632,6.007-10.07-2.553c0,0,1.069-5.775,1.458-7.885S25.432,178.977,25.432,178.977Z" transform="translate(8.742 145.708)" fill="#f1b282"/>
          <path id="Path-16" data-name="Path" d="M11.532,252.065H28.174s15.577-61.225,19.911-77.443c3.413-12.773,7.382-55,5.807-74.659-1.5-18.748-33.367-8.595-35.029,4.573-4.873,38.6,4.2,67.226,3.73,73.977C14.687,198.53,11.532,252.065,11.532,252.065Z" transform="translate(8.273 73.215)" fill="#102b5e"/>
          <path id="Path-17" data-name="Path" d="M48.2,30.742c2.012,4.328,1.026,6.684,1.519,8.508S52.1,44.756,52.183,46.5s-1.774,1.985-2.173,4.267.649,5.256-.74,7.647-6.786,1.84-6.467,4.147,3.719,10.876,3.719,10.876L24.333,73.8s.886-12.47-.243-17.626-3.63-24.09.977-26.387S46.065,26.148,48.2,30.742Z" transform="translate(17.258 21.915)" fill="url(#linear-gradient)"/>
          <path id="Path-18" data-name="Path" d="M41.045,25.229C22.586,25.805,16.111,30.46,16.321,44.9c.125,8.6,4.87,20.515,11.1,20.476,4.491-.028,13.345-.528,14.9-2.985,3.683-5.83.529-13.879,3-16.657,3.507-3.949,11.479-1.915,10.382-15.518S47.189,25.036,41.045,25.229Z" transform="translate(12.231 17.611)" fill="#0b224e"/>
          <path id="Path-19" data-name="Path" d="M8.112,30.459S4.965,21.688,5.527,17C6.433,9.44,24.4,9.406,25.173,15.95c.82,6.948-2.415,8.766-4.529,10.579a27.447,27.447,0,0,0-5.134,6.2C14.9,33.937,9.018,33.935,8.112,30.459Z" transform="translate(3.249 8.264)" fill="url(#linear-gradient)"/>
          <path id="Path-20" data-name="Path" d="M82.755,58.819s6.6-6.576,8.1-11.053c2.417-7.216-13.8-14.955-17.3-9.375-3.717,5.926-1.572,8.957-.437,11.5a27.467,27.467,0,0,1,1.984,7.8C75.128,59.044,80.448,61.572,82.755,58.819Z" transform="translate(57.859 29.202)" fill="url(#linear-gradient)"/>
          <path id="Path-21" data-name="Path" d="M49.866,171.81l-4.779,8.835s-7.528,4.833-9.512-4.175c0,0,2-5.519,2.732-7.538S49.866,171.81,49.866,171.81Z" transform="translate(28.165 138.385)" fill="#f1b282"/>
          <path id="Path-22" data-name="Path" d="M59.683,96.489s32.05,45.417,32.831,54.534c1.409,16.452-29.954,81.788-29.954,81.788l-16.222-3.483s10.865-49.25,19.449-66.042C49.279,140.944,23.124,128.464,23.124,99.28,23.122,91.368,59.683,96.489,59.683,96.489Z" transform="translate(17.864 77.502)" fill="#0b224e"/>
          <path id="Path-23" data-name="Path" d="M44.47,76c4.751-.321,13.595.165,18.744.068,13.187-.249,31,11.486,45.284,15.681,9.332-10.109,23.015-26.152,23.015-26.152l11.508,7.114s-20.54,35.462-33.168,37.495c-7.641,1.231-19.926.76-29.459-3.2,0,11.876,15.2,58.418,4.031,60.79s-28.769-1.694-39.6,0-22.676,9.824-19.968-10.5,14.555-18.141-10.829-56.921C7.379,90.216-.361,75.422.813,63.016A220.746,220.746,0,0,1,8.992,20.539l12.595,2.032S20.5,48.1,17.793,63.008C20.5,70.181,24.586,75.12,29.25,80.221,31.8,83.017,37.033,75.732,44.47,76Z" transform="translate(-0.694 16.01)" fill="#1b90fb"/>
          <path id="Path-24" data-name="Path" d="M13.143,181.357c-1.312-.172-2.7,1.239-2.645,6.478s-.186,8.013,3.875,8.574c2.552.353,12.166-2.191,21.53-2.023,3.382.06,9.6-1.529,11.783-4.439a2.277,2.277,0,0,0,.252-2.176,1.724,1.724,0,0,0-1.6-1.166c-7.544.212-7.676.947-13.782-3.4-2.216-1.575-4.067-3.048-5.236-3.129-2.275-.157-3.326,2.876-7.033,2.48S15.413,181.655,13.143,181.357Z" transform="translate(7.416 148.009)" fill="#0b224e"/>
          <path id="Path-25" data-name="Path" d="M37.607,171.455c-1.373-.271-3.161,1.559-3.85,6.4s-2.083,8.711,2.162,9.576c2.667.543,16.544-.87,26.493.082,3.594.343,7.806-1.4,10.543-3.9a1.958,1.958,0,0,0,.577-1.988A1.691,1.691,0,0,0,72,180.411c-8.066-.446-8.31.221-14.2-4.305-2.137-1.645-3.9-3.161-5.131-3.335-2.4-.336-3.844,1.729-7.735,1.049S39.981,171.921,37.607,171.455Z" transform="translate(26.015 140.855)" fill="#0b224e"/>
        </g>
        <g id="text" transform="translate(416.768 87.454)">
          <path id="Path-26" data-name="Path" d="M162.084,10.967H5.369A5.032,5.032,0,0,1,.34,5.933h0A5.032,5.032,0,0,1,5.369.9H162.084a5.033,5.033,0,0,1,5.029,5.034h0A5.032,5.032,0,0,1,162.084,10.967Z" transform="translate(-0.34 -0.9)" fill="#fff"/>
          <path id="Path-27" data-name="Path" d="M162.084,30.779H5.369A5.032,5.032,0,0,1,.34,25.745h0a5.032,5.032,0,0,1,5.029-5.034H162.084a5.033,5.033,0,0,1,5.029,5.034h0A5.032,5.032,0,0,1,162.084,30.779Z" transform="translate(-0.34 9.49)" fill="#fff"/>
          <path id="Path-28" data-name="Path" d="M162.084,50.59H5.369A5.032,5.032,0,0,1,.34,45.556h0a5.032,5.032,0,0,1,5.029-5.034H162.084a5.033,5.033,0,0,1,5.029,5.034h0A5.032,5.032,0,0,1,162.084,50.59Z" transform="translate(-0.34 19.879)" fill="#fff"/>
          <path id="Path-29" data-name="Path" d="M162.084,70.4H5.369A5.032,5.032,0,0,1,.34,65.367h0a5.032,5.032,0,0,1,5.029-5.034H162.084a5.033,5.033,0,0,1,5.029,5.034h0A5.032,5.032,0,0,1,162.084,70.4Z" transform="translate(-0.34 30.268)" fill="#fff"/>
          <path id="Path-30" data-name="Path" d="M162.084,90.212H5.369A5.032,5.032,0,0,1,.34,85.178h0a5.032,5.032,0,0,1,5.029-5.034H162.084a5.033,5.033,0,0,1,5.029,5.034h0A5.032,5.032,0,0,1,162.084,90.212Z" transform="translate(-0.34 40.657)" fill="#fff"/>
          <path id="Path-31" data-name="Path" d="M162.084,110.023H5.369A5.032,5.032,0,0,1,.34,104.99h0a5.032,5.032,0,0,1,5.029-5.034H162.084a5.032,5.032,0,0,1,5.029,5.034h0A5.032,5.032,0,0,1,162.084,110.023Z" transform="translate(-0.34 51.046)" fill="#fff"/>
          <path id="Path-32" data-name="Path" d="M162.084,129.834H5.369A5.031,5.031,0,0,1,.34,124.8h0a5.032,5.032,0,0,1,5.029-5.034H162.084a5.033,5.033,0,0,1,5.029,5.034h0A5.031,5.031,0,0,1,162.084,129.834Z" transform="translate(-0.34 61.436)" fill="#fff"/>
          <path id="Path-33" data-name="Path" d="M162.084,149.647H5.369A5.032,5.032,0,0,1,.34,144.612h0a5.032,5.032,0,0,1,5.029-5.034H162.084a5.033,5.033,0,0,1,5.029,5.034h0A5.032,5.032,0,0,1,162.084,149.647Z" transform="translate(-0.34 71.825)" fill="#fff"/>
        </g>
        <g id="组_8684" data-name="组 8684" transform="translate(-21.524)">
          <g id="piece_of_chart" transform="translate(560.742 317.644)">
            <path id="Path-34" data-name="Path" d="M62.662.816C79.023,8.725,89.239,19.735,89.239,31.988c0,12.2-10.218,23.263-26.577,31.119L.322,31.988Z" transform="translate(-0.322 -0.816)" fill="#7266d5"/>
            <path id="Path-35" data-name="Path" d="M35.335,49.443h0V71.085C48.17,64.92,61.912,54.274,61.912,39.966V18.324C61.912,32.661,48.2,43.265,35.335,49.443Z" transform="translate(27.005 12.849)" fill="#877cd8"/>
            <path id="Path-36" data-name="Path" d="M62.662,49.444v21.64L.322,39.965V18.323Z" transform="translate(-0.322 12.848)" fill="#5f50d0"/>
          </g>
          <g id="woman_8_" transform="translate(589.922 281.577)">
            <path id="Path-37" data-name="Path" d="M45.252,66.563S28.13,103.631,24.721,128.646c-2.433,17.864-2.7,78.09-7.669,81.738-6.072,4.456-13.364,9.282-13.364,9.282l3.293,2.309S26.5,219.727,27.35,217.77s2.2-9.645,3.164-14.338C35.09,181.2,42.468,167.1,41.808,140.951c4.881-8.929,11.394-19.582,11.394-19.582S54.794,65.882,45.252,66.563Z" transform="translate(1.958 51.287)" fill="url(#linear-gradient)"/>
            <path id="Path-38" data-name="Path" d="M30.215,149.822c1.925.219.32,6.93-1.972,8.931.072.005-8.477-.094-8.477-.094l.149-2.2S12.2,159.1,8.11,158.824c-4.2-.285-7.639-.789-7.593-1.474.066-.961,5.728-3.9,6.944-3.814,1.682.114,3.242,2.268,4.677,2.3S28.645,149.644,30.215,149.822Z" transform="translate(-0.517 116.271)" fill="#0b224e"/>
            <path id="Path-39" data-name="Path" d="M77.719,188.123C69.8,171.445,66.234,147.09,52.657,130.836,55,113.789,65.669,104.326,65.669,84.547A36.344,36.344,0,0,0,61.636,67.7L27.329,66.561s-3.609,36.8,5.842,69.848c3.686,12.889,39.884,54.271,37.611,64.712a60.171,60.171,0,0,1-5.717,14.591l4.328.164S84.508,203.1,84.168,200.991,79.775,192.452,77.719,188.123Z" transform="translate(19.881 51.29)" fill="url(#linear-gradient)"/>
            <path id="Path-40" data-name="Path" d="M43.909,9.413c-3.117,1.044-2.882,6.394-3.854,7.949s-2.561,3.71-2.468,4.927,3.216,1.172,2.971,4.149-.277,6.683,4.272,7.614,3.83,5,4,8.854.747,4.962,2.307,4.89A22.394,22.394,0,0,0,61.225,43.37c3.742-2.769,8.112-10.866,7.328-15.5-1.511-8.934-4.834-16.176-12.1-18.208S46.542,8.532,43.909,9.413Z" transform="translate(28.412 5.92)" fill="url(#linear-gradient)"/>
            <path id="Path-41" data-name="Path" d="M67.49,140.763c1.738-.856,4.009,5.658,3.16,8.584.062-.034-7.184,4.5-7.184,4.5l-1.06-1.93s-5.07,6.394-8.661,8.37c-3.692,2.031-6.854,3.465-7.184,2.865-.465-.846,2.718-6.378,3.787-6.965,1.477-.814,3.953.157,5.176-.6S66.073,141.462,67.49,140.763Z" transform="translate(35.384 109.143)" fill="#0b224e"/>
            <path id="Path-42" data-name="Path" d="M72.135,65.7c0,7.055,5.233,10.115,4.338,24.387S67.369,125.214,64,127.445s-46.7,1.5-48.221-1.438C11.727,118.218,33.489,68.928,37.7,65.7S72.135,65.7,72.135,65.7Z" transform="translate(11.002 49.501)" fill="#0b224e"/>
            <path id="Path-43" data-name="Path" d="M62.44,94.925c0-15.325,14.959-24.012,15.091-51,0-12.618-7.686-17.095-19.587-17.1-7.929,0-24.607,16.986-24.62,22.354s3.114,12.349,3.114,17.9c0,10.019-8.741,20.239-8.741,27.848Z" transform="translate(20.696 20.276)" fill="#2ccd7f"/>
            <path id="Path-44" data-name="Path" d="M66.091,38.622S64.132,68.89,33.571,81.077c-2.778,1.1-3.7,2.06-5.791,2.88.62-4.17,3.3-9.009,5.493-14.1L57.883,53.9S63.363,44.641,66.091,38.622Z" transform="translate(20.762 29.484)" fill="#1eaf69"/>
            <path id="Path-45" data-name="Path" d="M78.1,52.081S67.242,66.293,57.689,71.542C38.342,82.174,22.39,84.4,22.39,84.4S4.7,88.3,2.006,80.587c-.963-2.756,3.2.848,11.948-.63,2.84-.569-.341-2.729-1.363-4.435s1.7-2.387,5.68.455,18.3-3.524,31.931-14.553C63.576,50.6,66.581,40.947,66.581,40.947S73.784,49.012,78.1,52.081Z" transform="translate(0.539 31.299)" fill="url(#linear-gradient)"/>
            <path id="Path-46" data-name="Path" d="M43.086,17.219s-5.44-.362-5.44-5.764c0-9.694,22.068-16.683,30.864-4.906S77.1,34.01,87.82,42.129,86.628,70.8,75.31,71.1,52.373,60.117,55.948,50.279s7.546-23.058,1.092-20.672S53.262,16.758,43.086,17.219Z" transform="translate(28.461 -0.37)" fill="#0b224e"/>
            <path id="Path-47" data-name="Path" d="M48.41,22.355a12.6,12.6,0,0,1-3.554,4.263A4.058,4.058,0,0,0,42.245,23.5,10.5,10.5,0,0,0,48.41,22.355Z" transform="translate(32.051 16.789)" fill="#cd916a"/>
          </g>
        </g>
        <g id="pie_chart" transform="translate(200.621 111.514)">
          <g id="Group" transform="translate(71.477 0)">
            <path id="Path-48" data-name="Path" d="M3.127.474C23,.474,41,4.413,54.229,10.7L.8,37.342V.518C1.632.474,2.352.474,3.127.474Z" transform="translate(-0.801 -0.474)" fill="#1b90fb"/>
            <path id="Path-49" data-name="Path" d="M54.23,7.18V25.709L.8,52.354V33.825Z" transform="translate(-0.8 3.043)" fill="#1277d7"/>
          </g>
          <g id="Group-2" data-name="Group" transform="translate(0 18.477)">
            <path id="Path-50" data-name="Path" d="M72.173.888V37.756L21.125,63.249C8.5,56.654.695,47.67.695,37.756c0-9.958,7.806-18.9,20.485-25.537C34.081,5.491,52.129,1.2,72.173.888Z" transform="translate(-0.695 -0.888)" fill="#ffd255"/>
            <path id="Path-51" data-name="Path" d="M65.144,25.073V43.6L14.1,69.1V50.566Z" transform="translate(6.334 11.795)" fill="#ffbc00"/>
            <path id="Path-52" data-name="Path" d="M2.111,32.311A19.513,19.513,0,0,1,.695,25.073h0V43.6c0,9.914,7.806,18.9,20.43,25.493V50.566C11.656,45.62,4.9,39.33,2.111,32.311Z" transform="translate(-0.695 11.795)" fill="#ffc31b"/>
          </g>
          <g id="Group-3" data-name="Group" transform="translate(76.147 31.624)">
            <path id="Path-53" data-name="Path" d="M53.639.507C67.647,7.279,76.394,16.705,76.394,27.2c0,10.445-8.748,19.917-22.755,26.644L.265,27.2Z" transform="translate(-0.265 -0.507)" fill="#dae7ff"/>
            <path id="Path-54" data-name="Path" d="M35.278,44.658h0V63.188c11.026-5.3,22.755-14.407,22.755-26.644V18.015C58.033,30.291,46.29,39.37,35.278,44.658Z" transform="translate(18.096 8.674)" fill="#aec1e8"/>
            <path id="Path-55" data-name="Path" d="M53.639,44.658V63.188L.265,36.544V18.015Z" transform="translate(-0.265 8.674)" fill="#c3d3f3"/>
          </g>
          <g id="Group-4" data-name="Group" transform="translate(21.969 69.83)">
            <path id="Path-56" data-name="Path" d="M51.758.356,105.187,27c-13.233,6.33-31.226,10.224-51.1,10.224-.72,0-1.495,0-2.27-.044-20.042-.265-38.037-4.559-51.1-11.331Z" transform="translate(-0.712 -0.356)" fill="#7ce3b0"/>
            <path id="Path-57" data-name="Path" d="M54.084,28.454c-.72,0-1.495,0-2.27-.044-20.042-.266-38.037-4.559-51.1-11.331V35.608c13.067,6.772,31.06,11.064,51.1,11.331.775.044,1.55.044,2.27.044a132,132,0,0,0,40.331-5.956,88.229,88.229,0,0,0,10.773-4.268V18.229C91.955,24.559,73.96,28.454,54.084,28.454Z" transform="translate(-0.712 8.414)" fill="#2ccd7f"/>
          </g>
        </g>
        <g id="man_hand_up" transform="translate(312.199 217.716)">
          <path id="Path-58" data-name="Path" d="M31.774,36.509c-1.952,4.2-.995,6.483-1.473,8.252s-2.312,5.34-2.39,7.033,1.719,1.925,2.108,4.138-.631,5.1.718,7.418,6.582,1.784,6.273,4.023S33.4,77.921,33.4,77.921l21.52.345s-.859-12.094.236-17.094,3.52-23.365-.947-25.592S33.847,32.053,31.774,36.509Z" transform="translate(23.881 29.436)" fill="url(#linear-gradient)"/>
          <path id="Path-59" data-name="Path" d="M42.945,31.32c17.9.559,24.184,5.075,23.979,19.077-.122,8.345-4.724,19.9-10.764,19.86-4.357-.027-12.944-.511-14.449-2.9C38.14,61.708,41.2,53.9,38.8,51.207c-3.4-3.831-11.132-1.859-10.07-15.051S36.988,31.133,42.945,31.32Z" transform="translate(24.525 25.103)" fill="#0b224e"/>
          <path id="Path-60" data-name="Path" d="M31.556,184.469v7.956H19.549l0-11.342Z" transform="translate(16.467 160.25)" fill="#f1b282"/>
          <path id="Path-61" data-name="Path" d="M47.855,184.058v9.4h12.21V181.919Z" transform="translate(41.566 160.992)" fill="#f1b282"/>
          <path id="Path-62" data-name="Path" d="M68.04,108.719s3.683,50.051,4.361,64.5.714,78.341.714,78.341l-12.743.113s-9.087-41.207-8.6-64.844c-2.931-9.482-18.411-64.792-18.636-76.079S62.4,103.076,68.04,108.719Z" transform="translate(28.517 91.353)" fill="#0b224e"/>
          <path id="Path-63" data-name="Path" d="M24.381,108.91s-5.282,50.729-5.957,65.176,1.9,77.666,1.9,77.666l13.183.9s6.626-34.313,7.195-65.963c2.931-9.482,21.024-65.2,21.25-76.483S30.019,103.267,24.381,108.91Z" transform="translate(15.371 91.161)" fill="#102b5e"/>
          <path id="Path-64" data-name="Path" d="M58.249,80.94S68.258,93.374,66.228,103.2s-14.575,29.723-17.62,34.127,5.022,9.142,5.022,9.142,25.7-33.41,29.757-43.568S69.244,66.212,69.244,66.212Z" transform="translate(41.624 58.407)" fill="url(#linear-gradient)"/>
          <path id="Path-65" data-name="Path" d="M35.675,97.569S24.409,96.168,18.249,77,10.3,32.1,12.541,26.425c3.552-9-.27-17.84-1.268-21.534-.757-2.8-3.009-6.651-3.637-3.634-.377,1.811-.088,6.508.62,9.969.63,3.08-9.021,3.386-7.668,8.128s2.707,4.436,2.931,7.8S1.94,68.9,4.422,77.932s11.954,32.507,18.945,36.8S35.675,97.569,35.675,97.569Z" transform="translate(-0.457 -0.157)" fill="url(#linear-gradient)"/>
          <path id="Path-66" data-name="Path" d="M56.579,60.056c5.243-.054,27.4-1.694,38.4,8.466S109.86,86.469,110.537,88.5,97,101.539,94.129,99.337s-4.905-6.264-8.288-6.264-1.692,18.455-.338,27.937,9.473,36.233,3.721,38.773-20.636-.847-29.263,1.355-23.005,3.894-27.741-1.524S35.6,133.707,35.773,120.5s-.338-33.863-8.288-39.111S9.895,74.449,9.555,69.54s13.87-20.487,17.253-18.793,9.522,8.8,15.9,8.974S52.856,60.094,56.579,60.056Z" transform="translate(7.604 44.581)" fill="#ffcb01"/>
          <path id="Path-67" data-name="Path" d="M17.906,187.234c1.023,3.177,4.919,2.679,7.387,3.2s11.07,1.715,11.38-.636-.9-4.068-.74-5.867,2.133-4.086.137-5.435-5.318-.089-7.731-.023c-1.765.047-8.274-2.726-9.065-1.613s.288,3.253.015,4.637C18.883,183.548,17.111,184.768,17.906,187.234Z" transform="translate(14.833 156.27)" fill="#355aa2"/>
          <path id="Path-68" data-name="Path" d="M64.408,188.178c-1.188,3.116-5.053,2.417-7.543,2.805s-11.144,1.132-11.333-1.23,1.112-4.015,1.046-5.82-1.918-4.192.147-5.435,5.314.19,7.721.381c1.76.141,8.4-2.29,9.136-1.134s-.458,3.232-.258,4.63C63.624,184.445,65.329,185.757,64.408,188.178Z" transform="translate(39.489 157.014)" fill="#355aa2"/>
          <path id="Path-69" data-name="Path" d="M38.933,186.815c-1.672-1.694-4.574,1.017-7.531,1.017s-4.6-2.03-6.147-2.145-2.335,3.5-5.6,5.154c-1.942.985-6.54,1.47-6.54,7.107,0,1.4,25.006,1.042,25.824.587C40.491,197.662,40.6,188.507,38.933,186.815Z" transform="translate(10.761 164.33)" fill="#102b5e"/>
          <path id="Path-70" data-name="Path" d="M67.265,186.815c-1.672-1.694-4.574,1.017-7.531,1.017s-4.6-2.03-6.147-2.145-2.335,3.5-5.6,5.154c-1.942.985-6.54,1.47-6.54,7.107,0,1.4,25.006,1.042,25.824.587C68.823,197.662,68.937,188.507,67.265,186.815Z" transform="translate(35.88 164.33)" fill="#102b5e"/>
        </g>
      </g>
    </g>
  </g>
</svg>
