<svg xmlns="http://www.w3.org/2000/svg" xmlns:xlink="http://www.w3.org/1999/xlink" width="750" height="750" viewBox="0 0 750 750">
  <defs>
    <linearGradient id="linear-gradient" x1="0.5" y1="0.377" x2="0.5" y2="1.604" gradientUnits="objectBoundingBox">
      <stop offset="0" stop-color="#ffd7c2"/>
      <stop offset="1" stop-color="#ffa5a5"/>
    </linearGradient>
    <linearGradient id="linear-gradient-2" x1="0.315" y1="1.657" x2="0.5" gradientUnits="objectBoundingBox">
      <stop offset="0" stop-color="#ad7dfe"/>
      <stop offset="1" stop-color="#5b62d9"/>
    </linearGradient>
    <linearGradient id="linear-gradient-3" x1="0.5" y1="0" y2="1" xlink:href="#linear-gradient-2"/>
    <linearGradient id="linear-gradient-5" x1="0.5" x2="0.5" y2="1" gradientUnits="objectBoundingBox">
      <stop offset="0" stop-color="#ff9ccc"/>
      <stop offset="1" stop-color="#ff73b7"/>
    </linearGradient>
    <linearGradient id="linear-gradient-7" x1="-0.113" y1="0.575" x2="1.534" y2="0.563" xlink:href="#linear-gradient"/>
    <linearGradient id="linear-gradient-8" x1="-0.333" y1="1.14" x2="1.187" y2="-0.06" xlink:href="#linear-gradient"/>
    <linearGradient id="linear-gradient-9" x1="0.5" y1="1" x2="0.596" y2="-0.19" xlink:href="#linear-gradient-2"/>
    <linearGradient id="linear-gradient-10" x1="0.5" x2="0.5" y2="1" gradientUnits="objectBoundingBox">
      <stop offset="0" stop-color="#485295"/>
      <stop offset="1" stop-color="#303565"/>
    </linearGradient>
    <linearGradient id="linear-gradient-14" x1="0.607" y1="1.666" xlink:href="#linear-gradient-2"/>
    <linearGradient id="linear-gradient-15" x1="0.5" y1="0.124" y2="1.214" xlink:href="#linear-gradient-2"/>
    <linearGradient id="linear-gradient-20" x1="0.5" x2="0.5" y2="1" gradientUnits="objectBoundingBox">
      <stop offset="0" stop-color="#ffc565"/>
      <stop offset="1" stop-color="#ff7f19"/>
    </linearGradient>
    <linearGradient id="linear-gradient-21" x1="1.643" y1="0.655" x2="-0.346" y2="0.877" xlink:href="#linear-gradient"/>
    <linearGradient id="linear-gradient-22" x1="0.384" y1="0.088" y2="1.604" xlink:href="#linear-gradient"/>
    <clipPath id="clip-金刚区卡片默认icon_3">
      <rect width="750" height="750"/>
    </clipPath>
  </defs>
  <g id="金刚区卡片默认icon_3" data-name="金刚区卡片默认icon – 3" clip-path="url(#clip-金刚区卡片默认icon_3)">
    <g id="组_8676" data-name="组 8676">
      <g id="组_7677" data-name="组 7677" transform="translate(-229 -627.592)">
        <rect id="矩形_965" data-name="矩形 965" width="750" height="750" transform="translate(229 627.592)" fill="none"/>
      </g>
      <g id="组_8673" data-name="组 8673" transform="translate(-231.735 -812.735)">
        <rect id="矩形_967" data-name="矩形 967" width="750" height="750" transform="translate(231.735 812.736)" fill="none"/>
        <g id="character-9" transform="translate(277.421 850.518)">
          <g id="Girl-with-website" transform="translate(0 0)">
            <path id="Shape" d="M525.536,58.229c-3.276,2.554-31.792-13.153-28.278-25.079,5.662-19.215,12.388-3.873,51.546-16.369-.946-4.7.784-12.65,5.046-14.918,6.392-3.4,31.207,1.763,24.076,9.162q-7.131,7.4-19.67,8.622c17.062,7.968,26.59,26.876,33.94,26.532,11.026-.515,5.135,8.45,19.577,5.655,5.3-1.026,33.432,9.13,8.618,47.292S564.725,148,553.212,141.894q-7.676-4.069-6.075-19.295-2.951,6.719-8.924,3.426c-5.973-3.293-13.03-9.055-5.007-23.93S527.719,56.526,525.536,58.229Z" transform="translate(-75.998 48.568)" fill="#423565"/>
            <path id="Shape-2" data-name="Shape" d="M586.78,105.365c4.589-17.471,8.75-23.071,13.037-18.386s14.784,12.369,28.15,16.667c10.5-7.824,16.225,6.953,20.722,6.766,3.289-.138-8.413,6.958-22.392,24.972-14.686,18.924-30.624,29.445-29.374,23.014,2.44-12.554-8.808-26.256-3.184-32.1s12.3-6.833,7.982-11.364S591.279,103.47,586.78,105.365Z" transform="translate(-110.098 14.891)" fill="url(#linear-gradient)"/>
            <path id="Shape-3" data-name="Shape" d="M554.94,171c10.415-13.735,25.747-25.319,28.76-27.729,3.594-.857,3.089,3.8,4.307,5.276,2.168,2.633,3.685,6.122,0,28.323-1.255,7.555-8.966,21.444-14.177,28.071-2.752,3.5-27.175-15.678-25.9-28.851C548.121,174.114,553.575,172.8,554.94,171Z" transform="translate(-95.33 -7.043)" fill-rule="evenodd" fill="url(#linear-gradient-2)"/>
            <path id="Shape-4" data-name="Shape" d="M605.892,130.876c.735-.663,8.626,18.759,20.518,12.346s4.268-30.686,6.691-31.194c10.953-2.3,16.244-2.413,23.814,0s25.842,33.5,32.02,68.03,33.2,46.228,28.038,60.434c-70.8-30.543-39.566-16.524-92.32-1.485q18.2-24.317.328-44.036c-4.294-4.736-17.911-6.217-20.257-12.41-4.956-13.087-2.65-40.036-1.717-44.833C603.718,134.069,602.8,133.672,605.892,130.876Z" transform="translate(-115.744 5.451)" fill-rule="evenodd" fill="url(#linear-gradient-3)"/>
            <g id="组_8687" data-name="组 8687" transform="translate(447.328 84.385)">
              <path id="Shape-5" data-name="Shape" d="M596.761,119.739l11.863-16.815q-3.078,18.573-5.919,15.851T596.761,119.739Z" transform="translate(-561.215 -76.149)" fill="#ef6949"/>
              <g id="组_8686" data-name="组 8686" transform="translate(0 0)">
                <path id="Shape-6" data-name="Shape" d="M584.907,64.754c5-2.49,13.349,5.387,12.238,11.1a10.549,10.549,0,0,1-8.571,8.385c-2.614,12.812-13.3,22.377-19.7,24.766-5.454,2.035-22.963-13.587-27.516-27.3-4.391-7.447.445-14.153-1.087-19.573,7.772,7.875,23.389,7.275,29.046,7.849.488.049,8.976,9.878,10.129,9.811,1.676-.1.545-4.1,1-3.51Q579.905,67.244,584.907,64.754Z" transform="translate(-539.462 -60.664)" fill="url(#linear-gradient)"/>
                <path id="Shape-7" data-name="Shape" d="M568.946,97.054a1.59,1.59,0,1,1,.4-1.945A1.422,1.422,0,0,1,568.946,97.054Z" transform="translate(-549.891 -72.829)" fill="#423565"/>
                <path id="Shape-8" data-name="Shape" d="M553.3,104.2a1.59,1.59,0,1,1,.4-1.945A1.421,1.421,0,0,1,553.3,104.2Z" transform="translate(-543.949 -75.541)" fill="#423565"/>
                <path id="Shape-9" data-name="Shape" d="M564.844,81.816c-1.721.766-3.343.88-3.622.254s.891-1.755,2.613-2.521,3.343-.88,3.622-.254S566.565,81.049,564.844,81.816Z" transform="translate(-547.707 -67.024)" fill="#423565"/>
                <path id="Shape-10" data-name="Shape" d="M543.189,96.529c-1.4,1.261-2.908,1.87-3.366,1.361s.305-1.944,1.705-3.2,2.908-1.87,3.366-1.361S544.589,95.268,543.189,96.529Z" transform="translate(-539.549 -72.436)" fill="#423565"/>
                <path id="Shape-11" data-name="Shape" d="M561.5,100.648c.3,4.829.164,7.914-.415,9.3-.205.491-.1.707.4.831a9.072,9.072,0,0,0,3.378-.236.31.31,0,0,1,.121.608,9.454,9.454,0,0,1-3.646.23,1.1,1.1,0,0,1-.827-1.673c.53-1.269.659-4.3.369-9.027a.31.31,0,1,1,.619-.038Z" transform="translate(-547.399 -75.174)" fill="#ef6949"/>
                <path id="Shape-12" data-name="Shape" d="M618.035,75.136c-1.745-2.578-3-3.322-3.828-2.5-.957.953-1.624,3.433-1.951,7.406a.31.31,0,1,1-.618-.051c.339-4.115,1.034-6.7,2.131-7.795,1.229-1.224,2.842-.271,4.78,2.592a.31.31,0,0,1-.514.348Z" transform="translate(-566.863 -64.285)" fill="#ef6949"/>
                <path id="Shape-13" data-name="Shape" d="M613.677,77.179c2.129.2,3.043,1.018,2.438,2.389a.31.31,0,0,1-.568-.25c.384-.871-.156-1.356-1.928-1.521a.31.31,0,0,1,.058-.618Z" transform="translate(-567.509 -66.374)" fill="#ef6949"/>
                <path id="Shape-14" data-name="Shape" d="M583.142,117.1c-1.279.862-5.409.128-6.655-1.718s4.7-8.272,5.942-6.426S584.421,116.233,583.142,117.1Z" transform="translate(-553.454 -78.312)" fill="#ef6949"/>
                <path id="Shape-15" data-name="Shape" d="M550.346,61.008a.31.31,0,0,1,.35-.512A24.038,24.038,0,0,0,566.8,64.9a28.9,28.9,0,0,0,14.64-5.079.31.31,0,0,1,.362.5,29.512,29.512,0,0,1-14.948,5.193A24.652,24.652,0,0,1,550.346,61.008Z" transform="translate(-543.543 -59.763)" fill="#fff"/>
              </g>
            </g>
            <path id="Shape-16" data-name="Shape" d="M39.81,245H614.665a39.81,39.81,0,0,1,39.81,39.81V655.838a39.81,39.81,0,0,1-39.81,39.81H39.81A39.81,39.81,0,0,1,0,655.838V284.81A39.81,39.81,0,0,1,39.81,245Z" transform="translate(0 -50.563)" fill="#fff" stroke="#746ae4" stroke-width="1" fill-rule="evenodd" opacity="0.287"/>
            <path id="Shape-17" data-name="Shape" d="M74.478,363.959c-12.312,0-22.294,9.271-22.294,20.708V649.442c0,11.438,9.981,20.708,22.294,20.708h167.2c12.312,0,22.294-9.271,22.294-20.708V384.667c0-11.437-9.981-20.708-22.294-20.708Zm0-2.959h167.2c14.071,0,25.478,10.6,25.478,23.667V649.442c0,13.071-11.407,23.667-25.478,23.667H74.478C60.407,673.11,49,662.514,49,649.442V384.667C49,371.6,60.407,361,74.478,361Z" transform="translate(-9.986 -74.204)" fill="#fff"/>
            <path id="Shape-18" data-name="Shape" d="M384.886,533H669.925a23.886,23.886,0,0,1,23.886,23.887v125.8a23.885,23.885,0,0,1-23.886,23.886H384.886A23.886,23.886,0,0,1,361,682.685v-125.8A23.886,23.886,0,0,1,384.886,533Z" transform="translate(-73.573 -109.258)" fill="#fff" fill-rule="evenodd" opacity="0.579"/>
            <path id="Shape-19" data-name="Shape" d="M552.8,676.6a41.8,41.8,0,1,1,41.8-41.8A41.8,41.8,0,0,1,552.8,676.6Zm0-5.669A36.132,36.132,0,1,0,516.668,634.8,36.131,36.131,0,0,0,552.8,670.932Z" transform="translate(-104.143 -121.486)" fill-rule="evenodd" fill="url(#linear-gradient-5)"/>
            <path id="Shape-20" data-name="Shape" d="M557.408,627.975l17.885,11.713a2.389,2.389,0,0,1,0,4L557.408,655.4a2.388,2.388,0,0,1-3.7-2V629.973a2.389,2.389,0,0,1,3.7-2Z" transform="translate(-112.848 -128.534)" fill-rule="evenodd" fill="url(#linear-gradient-5)"/>
            <path id="Shape-21" data-name="Shape" d="M384.478,364.185a22.294,22.294,0,0,0-22.293,22.293v52.549a22.293,22.293,0,0,0,22.293,22.294H669.517a22.293,22.293,0,0,0,22.293-22.294V386.478a22.294,22.294,0,0,0-22.293-22.293Zm0-3.185H669.517A25.478,25.478,0,0,1,695,386.478v52.549a25.478,25.478,0,0,1-25.478,25.479H384.478A25.478,25.478,0,0,1,359,439.027V386.478A25.478,25.478,0,0,1,384.478,361Z" transform="translate(-73.165 -74.204)" fill="#fff"/>
            <path id="Shape-22" data-name="Shape" d="M381.523,453.994a1.592,1.592,0,1,1-.692-3.108l304.937-67.848a1.592,1.592,0,1,1,.691,3.108Z" transform="translate(-77.36 -78.688)" fill="#fff"/>
            <path id="Path" d="M685.768,453.994,380.831,386.146a1.592,1.592,0,1,1,.692-3.108l304.936,67.848a1.592,1.592,0,1,1-.691,3.108Z" transform="translate(-77.36 -78.688)" fill="#fff"/>
            <path id="Shape-23" data-name="Shape" d="M39.81,245H614.665a39.81,39.81,0,0,1,39.81,39.81v19.109H0V284.81A39.81,39.81,0,0,1,39.81,245Z" transform="translate(0 -50.563)" fill="#fff" fill-rule="evenodd"/>
            <ellipse id="Shape-24" data-name="Shape" cx="13.45" cy="16.812" rx="13.45" ry="16.812" transform="translate(44.933 209.697)" fill="#ff9f5e"/>
            <ellipse id="Shape-25" data-name="Shape" cx="20.174" cy="16.812" rx="20.174" ry="16.812" transform="translate(85.282 209.697)" fill="#ff9f5e"/>
            <path id="Shape-26" data-name="Shape" d="M256.06,662.075a1.593,1.593,0,0,1-2.641,1.78L68.272,389.259a1.592,1.592,0,0,1,2.641-1.78Z" transform="translate(-13.858 -79.457)" fill="#fff"/>
            <path id="Shape-27" data-name="Shape" d="M68.272,662.075l185.147-274.6a1.593,1.593,0,0,1,2.641,1.78L70.913,663.855a1.592,1.592,0,1,1-2.641-1.78Z" transform="translate(-13.858 -79.457)" fill="#fff"/>
            <path id="Shape-28" data-name="Shape" d="M429.167,241.062q19.706-2.611,30.25-7.984a54.239,54.239,0,0,1,14.218-4.352c7.4-1.825,12.472-10.55,19.293-14.727a155.414,155.414,0,0,0,14.6,14.664q-16.739,16.62-21.169,18.01-14.05,4.408-59.919,7.124a45.614,45.614,0,0,1-9.5,3.816c-12.014,4.386-23.332-9.26-22.928-13.777.272-3.035,23.363-.878,24.1-3.778.422-1.666-1.358-6.458-.468-7.168C419.381,231.5,427.074,238.563,429.167,241.062Z" transform="translate(-36.91 -33.933)" fill="url(#linear-gradient-7)"/>
            <path id="Shape-29" data-name="Shape" d="M527.766,255.472c10.364-8.258,23.183-21.606,28.975-27.256,3.721-3.63,5.6-3.3,10.171-7.372,24.858-24.731,15.962-36.683,30.821-43.531,12.954-5.97,14.615.839,19.721,6.642s-21.928,40.825-31.7,51.84c-6.515,7.343-28.486,14.7-53.765,32a45.6,45.6,0,0,1-6.177,8.164c-8.039,9.947-24.768,4.08-26.749,0-1.33-2.741,19.574-12.786,18.71-15.65-.5-1.646-4.491-4.836-4.093-5.9C514.454,252.318,524.685,254.407,527.766,255.472Z" transform="translate(-76.773 -19.127)" fill="url(#linear-gradient-8)"/>
            <path id="Shape-30" data-name="Shape" d="M670.969,166.758c-1.09,1.98-.067,7.5-1.8,8.475-11.516,6.522-38.968-7.99-36.891-11.927,2.128-4.033,10.7-13.31,16.334-24.8,4.786-9.751,6.549-22.006,10.072-24.434,8.1-5.581,18.061-2.8,26.581,23.8C686.327,141.186,679.28,151.657,670.969,166.758Z" transform="translate(-127.329 4.909)" fill-rule="evenodd" fill="url(#linear-gradient-9)"/>
          </g>
          <g id="Man" transform="translate(40.93 200.179)">
            <path id="Shape-31" data-name="Shape" d="M147,207.172c-7.082-.4,4.505-19.691,28.1-30.756,13.545,3.973,12.376,22.737,21.726,30.06,3.582,2.805-16.131,24.276-20.841,21.568C162.072,220.046,154.935,207.618,147,207.172Z" transform="translate(-43.168 -52.545)" fill-rule="evenodd" fill="url(#linear-gradient-10)"/>
            <path id="Shape-32" data-name="Shape" d="M144.883,126.6q-4.555,18.875-16.876,21.757c-12.32,2.882-13.545-6.14-23.983,0q-10.439,6.139-15.132,46.758-5.805,46.07-17.977,68.338-5.732,10.486,61.9,0,20.565-32.224,26.06-47.345c5.5-15.122,4.857-39.835,0-46.1a114.846,114.846,0,0,1-7.2-10.128q7.5-19.176,9.977-19.176T144.883,126.6Z" transform="translate(-20.988 -37.706)" fill="url(#linear-gradient)"/>
            <path id="Shape-33" data-name="Shape" d="M63.7,626.642l-3.7,5.8,16.778,3.375q7.388-22.774,7.488-34.213C84.981,519.943,68.127,613.267,63.7,626.642Z" transform="translate(-17.872 -169.317)" fill="url(#linear-gradient)"/>
            <path id="Shape-34" data-name="Shape" d="M181.029,634.312l18.2,1.709q-4.065-19.134-3.965-30.572.556-63.823-17.648,4.979Z" transform="translate(-52.902 -171.183)" fill="url(#linear-gradient)"/>
            <path id="Shape-35" data-name="Shape" d="M78.248,333.55q4.687-24.934,58.875-19.107,26.13,62.661,29.455,103.669t0,115.2q-14.094,10.056-22.852,3.056c-8.759-7,.312-9.35-6.6-22.179s-6.727-64.106-10.535-74.329C110.587,396.907,75.994,345.541,78.248,333.55Z" transform="translate(-23.275 -93.327)" fill-rule="evenodd" fill="url(#linear-gradient-14)"/>
            <path id="Shape-36" data-name="Shape" d="M67.724,316.777c-5.853,10.708,6.726,68.968,8.655,114.754.307,7.28-12.176,48.251-12.176,83.542,0,16.2-5.636,10.116-4.218,15.51q4.271,16.248,26.862,2.9,16.674-56.34,26.2-96.369t16.583-120.338Q79.9,294.51,67.724,316.777Z" transform="translate(-17.798 -91.035)" fill-rule="evenodd" fill="url(#linear-gradient-15)"/>
            <path id="Shape-37" data-name="Shape" d="M164.574,87.574c-1.247-13.335,7.036-25.726,19.828-28.679,14.007-3.234,26.112-10.386,33.9,7.983s-10.937,61.531-18.165,60.189c-14.949-2.775-23.365-9.879-28.432-18.32l-.2.047a11.206,11.206,0,0,1-6.937-21.22Z" transform="translate(-46.991 -16.317)" fill="url(#linear-gradient)"/>
            <ellipse id="Shape-38" data-name="Shape" cx="1.686" cy="2.105" rx="1.686" ry="2.105" transform="translate(154.827 71.858)" fill="#423565"/>
            <ellipse id="Shape-39" data-name="Shape" cx="1.686" cy="2.105" rx="1.686" ry="2.105" transform="translate(167.897 70.173)" fill="#423565"/>
            <path id="Shape-40" data-name="Shape" d="M195.222,54.849q-3.14,13.1-15.04,10.327,5,8.941-6.7,17.137a26.8,26.8,0,0,0-12.33-9.577c-4.835-2.02-14.06,12.618,4.384,20.582a95.142,95.142,0,0,1-5.39,7.935q-6.78-11.766-9.912-15.456c-6.02-7.093-11.507-11.948-12.425-16.673q-2.1-10.778,13.026-15.772-3.865-13.99,6.175-20.4t18.65-2.41Q183.272-5.8,215.782,2.209c32.51,8,18.755,52.4,1.769,55.7Q200.564,61.214,195.222,54.849Z" transform="translate(-40.971 -0.227)" fill="#423565"/>
            <path id="Shape-41" data-name="Shape" d="M57.056,652.392c-2.539,5.991-3.7,17.479,4.822,17.479s53.055,2.065,48.428-1.708q-4.628-3.772-32.917-15.772-5.088,4.755-9.149,2.469C65.827,653.5,59.594,646.4,57.056,652.392Z" transform="translate(-16.441 -193.607)" fill-rule="evenodd" fill="url(#linear-gradient-10)"/>
            <path id="Shape-42" data-name="Shape" d="M177.128,652.392c-2.538,5.991-3.7,17.479,4.822,17.479s53.055,2.065,48.427-1.708q-4.628-3.772-32.918-15.772-5.088,4.755-9.149,2.469C185.9,653.5,179.667,646.4,177.128,652.392Z" transform="translate(-52.205 -193.607)" fill-rule="evenodd" fill="url(#linear-gradient-10)"/>
            <path id="Shape-43" data-name="Shape" d="M118.726,155.555c-7.488-.369-21.288-7.129-29.907-2.06q-10.439,6.14-4.458,49.248-8.276,47.595-28.017,68.339c-11.285,11.858,23.793,26.472,49.578,27.158,19.32.513,29.286-11.562,33.276-12.345,9.315-1.828-2.1-26.3,0-31.068,5.759-13.094,12.466-23.7,15.152-31.092,5.5-15.122,4.857-39.835,0-46.1a114.626,114.626,0,0,1-7.2-10.128q3.352,10.128-7.95,10.128C127.9,177.639,120.307,155.633,118.726,155.555Z" transform="translate(-16.135 -45.159)" fill-rule="evenodd" fill="url(#linear-gradient-10)"/>
            <path id="Shape-44" data-name="Shape" d="M11.946,258.407,229.64,132.721a22.469,22.469,0,0,1,30.693,8.224L283.5,181.079a22.469,22.469,0,0,1-8.224,30.693L57.586,337.458a22.468,22.468,0,0,1-30.693-8.224L3.721,289.1A22.469,22.469,0,0,1,11.946,258.407Z" transform="translate(-0.211 -38.633)" fill-rule="evenodd" fill="url(#linear-gradient-20)"/>
            <circle id="Shape-45" data-name="Shape" cx="26.687" cy="26.687" r="26.687" transform="translate(36.742 218.909)" fill="#fafeff"/>
            <path id="Shape-46" data-name="Shape" d="M351.91,259.559q.517,8.2-1.782,9.468c-2.3,1.264-5.41,1.974-12.136,3.4-4.186.886-10.69-4.08-10.435-5.719q.256-1.639,6.6,2.012-6.723-8.487-5.346-9.159t9.726,6.111q-7.811-10.583-5.853-11.538t10.824,9.2q-7.767-13.237-5.553-13.591c1.367-.219,3.878,3.937,10.126,10.333Q348.577,260.575,351.91,259.559Z" transform="translate(-97.559 -74.381)" fill="url(#linear-gradient-21)"/>
            <path id="Shape-47" data-name="Shape" d="M54.7,199.765c1.636-11.8,25.472,7.771,21.68,14.509-7.89,14.02-12.033,16.353-11.893,23.936.059,3.215,5.762,7.041,8.771,13.074,7.244,14.523,20.017,38.415,25.95,41.164.676.313,12.214-7.072,14.883-6.819,2.011.19-4.632,8.038-4.466,8.168,1.807,1.413,17.784,3.014,20.169,4.792q2.386,1.777-12.169,1.17,12.554,3.421,11.951,4.356t-14.74-.039q12.332,4.367,11.838,5.018T112.691,306.9q9.1,5.282,8.179,6.144c-.924.862-8.383-2.816-12.387-2.22-4.846.723-11.008-3.97-11.776-4.388-20.649-11.232-57.91-59.58-60.38-64.232C30.153,230.575,51.9,219.979,54.7,199.765Z" transform="translate(-10.493 -58.396)" fill="url(#linear-gradient-22)"/>
            <ellipse id="Shape-48" data-name="Shape" cx="4.637" cy="1.684" rx="4.637" ry="1.684" transform="translate(165.088 63.577)" fill="#423565"/>
            <ellipse id="Shape-49" data-name="Shape" cx="4.637" cy="1.684" rx="4.637" ry="1.684" transform="translate(148.364 65.683)" fill="#423565"/>
            <path id="Shape-50" data-name="Shape" d="M232.36,103.8a.422.422,0,0,1,.839-.081c.616,6.405,1.434,10.435,2.415,12.024a1.5,1.5,0,0,1-.755,2.418,12.858,12.858,0,0,1-4.943.467.421.421,0,1,1,.031-.842,12.34,12.34,0,0,0,4.583-.4c.647-.272.744-.586.365-1.2C233.823,114.449,232.989,110.342,232.36,103.8Z" transform="translate(-68.359 -30.78)" fill="#ef6949"/>
            <path id="Shape-51" data-name="Shape" d="M220.955,137.744a.422.422,0,0,1,.312-.784c2.78,1.106,4.6.677,5.627-1.258a.421.421,0,1,1,.744.4C226.385,138.456,224.1,138.995,220.955,137.744Z" transform="translate(-65.732 -40.352)" fill="#ef6949"/>
            <path id="Shape-52" data-name="Shape" d="M167.5,115.177a.422.422,0,0,1-.822-.191c1.065-4.57,2.646-6.563,4.8-5.609,1.925.85,4.065,3.79,6.5,8.841a.422.422,0,0,1-.76.366c-2.35-4.876-4.4-7.7-6.082-8.437C169.7,109.506,168.463,111.061,167.5,115.177Z" transform="translate(-49.642 -32.508)" fill="#ef6949"/>
            <path id="Shape-53" data-name="Shape" d="M114.826,179.837c-10.633,5.779-26.376,38.465-31.906,39.225S40.384,198.467,51.1,192.031s30.083-32.828,36.079-38.2c3.564-3.194,13.418,1.294,24.027,7.223C118.438,165.1,118.386,177.9,114.826,179.837Z" transform="translate(-14.642 -45.502)" fill-rule="evenodd" fill="url(#linear-gradient-10)"/>
            <path id="Shape-54" data-name="Shape" d="M176.63,115.193a.421.421,0,1,1-.084.838c-2.406-.239-3.254.267-2.967,1.528a.422.422,0,0,1-.822.186C172.306,115.761,173.738,114.907,176.63,115.193Z" transform="translate(-51.431 -34.294)" fill="#ef6949"/>
            <path id="Shape-55" data-name="Shape" d="M256.441,46.924c4.254-2.74,5.313-7.672,2.873-12.307a.421.421,0,0,1,.746-.392c2.636,5.007,1.474,10.42-3.162,13.406a30.748,30.748,0,0,1-7.582,3.072c1.4,1.926,1.788,3.883.631,5.287-2.567,3.113-7.765,4.22-15.571,3.39a.421.421,0,1,1,.089-.837c7.552.8,12.489-.249,14.831-3.088.9-1.09.47-2.792-.864-4.515a35.23,35.23,0,0,1-3.686.75,13.043,13.043,0,0,1-5.894-.187,2.985,2.985,0,0,1-2.106-3.717,3.08,3.08,0,0,1,3.466-2.656,11.107,11.107,0,0,1,5.3,2.049,15.929,15.929,0,0,1,3.237,2.808A30.618,30.618,0,0,0,256.441,46.924Zm-11.4.955a10.33,10.33,0,0,0-4.867-1.908,2.249,2.249,0,0,0-2.6,1.976,2.157,2.157,0,0,0,1.561,2.762,12.348,12.348,0,0,0,5.492.147c1.022-.146,2.107-.364,3.2-.632A15.364,15.364,0,0,0,245.043,47.879Z" transform="translate(-69.696 -10.127)" fill="#fff"/>
            <path id="Shape-56" data-name="Shape" fill="none"/>
            <path id="Shape-57" data-name="Shape" fill="none"/>
            <path id="Shape-58" data-name="Shape" d="M182.634,139.07l7.5,12.2,2.386-4.751Z" transform="translate(-54.397 -41.421)" fill="#ef6949"/>
            <path id="Shape-59" data-name="Shape" d="M142.737,270.114a3.16,3.16,0,1,1-3.153-5.477l121.978-70.215a3.16,3.16,0,0,1,3.153,5.477Z" transform="translate(-41.103 -57.782)" fill="#fafeff"/>
            <path id="Shape-60" data-name="Shape" d="M157.737,299.114a3.16,3.16,0,1,1-3.153-5.477l121.978-70.215a3.16,3.16,0,1,1,3.153,5.477Z" transform="translate(-45.571 -66.42)" fill="#fafeff"/>
          </g>
        </g>
      </g>
      <g id="组_8675" data-name="组 8675" transform="translate(495.82 340.544)">
        <path id="Path-2" data-name="Path" d="M591.646,959.453S515.446,850.727,515.6,784.6s70.817-73.971,76.047,18.915C596.874,896.324,591.646,959.453,591.646,959.453Z" transform="translate(-471.201 -671.1)" fill="#ffd574"/>
        <path id="Path-3" data-name="Path" d="M614.5,983.294s9.15-104.88,65.358-134.945,72.356,10.841,67.588,22.452C742.6,882.335,614.5,983.294,614.5,983.294Z" transform="translate(-494.056 -694.944)" fill="#1b90fb"/>
        <line id="Path-4" data-name="Path" x1="46.212" y1="177.851" transform="translate(74.233 110.499)" fill="none" stroke="#fff" stroke-linecap="round" stroke-linejoin="round" stroke-width="3"/>
        <path id="Path-5" data-name="Path" d="M674.4,886.7c-45.367,31.989-81.045,107.958-81.045,107.958s-39.214-28.6-70.356-34.985" transform="translate(-472.912 -706.309)" fill="none" stroke="#fff" stroke-linecap="round" stroke-linejoin="round" stroke-width="3" fill-rule="evenodd"/>
        <path id="Path-6" data-name="Path" d="M598.91,1130.75H586.838a58.411,58.411,0,0,1-58.438-58.437V1027.1H657.425v45.213A58.527,58.527,0,0,1,598.91,1130.75Z" transform="translate(-474.16 -738.746)" fill="#ced5e5"/>
      </g>
    </g>
  </g>
</svg>
