<svg class="icon" viewBox="0 0 1024 1024" xmlns="http://www.w3.org/2000/svg" width="128" height="128"><defs><style/></defs><path d="M1013.862 883.712c-29.286 80.657-101.58 133.495-181.18 138.99v.99c-497.834 0-832.409-332.8-832.409-834.525h1.434C8.157 110.42 60.382 39.15 139.913 10.137c107.997-39.39 149.196 44.988 188.518 153.26 39.322 108.27 61.85 199.44-46.148 238.864-12.39 4.506-24.952 7.407-37.581 9.421 44.134 181.93 187.085 323.789 368.572 367.343 2.048-12.732 4.983-25.463 9.489-37.99 39.287-108.271 130.252-85.675 238.25-46.251s192.137 80.657 152.85 188.928z" fill="#336699"/></svg>