<svg xmlns="http://www.w3.org/2000/svg" xmlns:xlink="http://www.w3.org/1999/xlink" width="750" height="750" viewBox="0 0 750 750">
  <defs>
    <linearGradient id="linear-gradient" x1="0.5" x2="0.5" y2="1" gradientUnits="objectBoundingBox">
      <stop offset="0" stop-color="#eef9ff"/>
      <stop offset="1" stop-color="#a8f9f4"/>
    </linearGradient>
    <clipPath id="clip-金刚区卡片默认icon-1">
      <rect width="750" height="750"/>
    </clipPath>
  </defs>
  <g id="金刚区卡片默认icon-1" clip-path="url(#clip-金刚区卡片默认icon-1)">
    <g id="组_7677" data-name="组 7677" transform="translate(-229 -627.592)">
      <rect id="矩形_965" data-name="矩形 965" width="750" height="750" transform="translate(229 627.592)" fill="none"/>
      <g id="组_7538" data-name="组 7538" transform="translate(229 695.247)">
        <g id="plant_16_" transform="translate(475.75 141.725)">
          <path id="Path" d="M125.137,102.326c-13.971,24.23-85.763,99.819-96.817,84.056-5.461-7.786,20.837-37.153,46.9-138.316,9.14-35.48,33.315-60.384,55.547-41C151.984,25.569,139.108,78.093,125.137,102.326Z" transform="translate(33.838 -0.297)" fill="#1b90fb"/>
          <path id="Path-2" data-name="Path" d="M27.222,167.707a.5.5,0,0,1-.135-.915c.51-.314,51.391-32.726,87.653-148.712a.5.5,0,1,1,.958.3C96.69,79.18,73.777,116.51,57.9,137.12,40.67,159.486,27.744,167.57,27.613,167.65A.509.509,0,0,1,27.222,167.707Z" transform="translate(32.918 21.19)" fill="#f3f9ff"/>
          <path id="Path-3" data-name="Path" d="M129.5,44.268C101.514,66.86,16.39,171.218,30.623,193.605s151.153-69.207,179.134-91.8,35.123-58.611,15.464-73.825C194.23,3.994,157.479,21.676,129.5,44.268Z" transform="translate(35.61 19.697)" fill="#9e95e3"/>
          <path id="Path-4" data-name="Path" d="M28.688,177.978a.516.516,0,0,1-.185-.092.5.5,0,0,1-.08-.706,745.067,745.067,0,0,1,51.47-56.663c28.337-28.263,71.351-66.54,115.339-88.38a.5.5,0,0,1,.447.9C151.814,54.817,108.894,93.011,80.611,121.22a744.292,744.292,0,0,0-51.4,56.585A.5.5,0,0,1,28.688,177.978Z" transform="translate(34.726 38.881)" fill="#f3f9ff"/>
          <path id="Path-5" data-name="Path" d="M133.675,68.2C108.162,73.1,25.968,112.543,31.031,131.364s124.178,19.863,149.691,14.956,45.065-18.347,34.463-49.932C205.376,67.166,159.188,63.292,133.675,68.2Z" transform="translate(37.799 81.18)" fill="#1b90fb"/>
          <path id="Path-6" data-name="Path" d="M.25,142.857a.466.466,0,0,1-.125-.165.5.5,0,0,1,.235-.67,744.392,744.392,0,0,1,71-28.542C109.17,100.407,164.55,84.725,213.65,84.258a.5.5,0,0,1,.008,1.005C164.7,85.726,109.435,101.376,71.7,114.425a742.369,742.369,0,0,0-70.9,28.5A.506.506,0,0,1,.25,142.857Z" transform="translate(-0.076 103.179)" fill="#f3f9ff"/>
        </g>
        <path id="路径_8999" data-name="路径 8999" d="M93.655,0h388a93.655,93.655,0,0,1,93.655,93.655V347.863a93.655,93.655,0,0,1-93.655,93.655h-388A93.655,93.655,0,0,1,0,347.863V93.655A93.655,93.655,0,0,1,93.655,0Z" transform="translate(42.147)" fill="#fff" opacity="0.22"/>
        <circle id="椭圆_36" data-name="椭圆 36" cx="51.255" cy="51.255" r="51.255" transform="translate(0 162.293)" fill="url(#linear-gradient)"/>
        <g id="text" transform="translate(318.792 63.548)">
          <path id="Path-7" data-name="Path" d="M237.207,15.643H7.7A7.369,7.369,0,0,1,.34,8.271h0A7.369,7.369,0,0,1,7.7.9h229.5a7.37,7.37,0,0,1,7.365,7.372h0A7.369,7.369,0,0,1,237.207,15.643Z" transform="translate(-0.34 -0.9)" fill="#fff"/>
          <path id="Path-8" data-name="Path" d="M237.207,35.455H7.7A7.369,7.369,0,0,1,.34,28.083h0A7.369,7.369,0,0,1,7.7,20.711h229.5a7.37,7.37,0,0,1,7.365,7.372h0A7.369,7.369,0,0,1,237.207,35.455Z" transform="translate(-0.34 23.516)" fill="#fff"/>
          <path id="Path-9" data-name="Path" d="M237.207,55.266H7.7A7.369,7.369,0,0,1,.34,47.894h0A7.369,7.369,0,0,1,7.7,40.522h229.5a7.37,7.37,0,0,1,7.365,7.372h0A7.369,7.369,0,0,1,237.207,55.266Z" transform="translate(-0.34 47.932)" fill="#fff"/>
          <path id="Path-10" data-name="Path" d="M237.207,75.077H7.7A7.369,7.369,0,0,1,.34,67.705h0A7.369,7.369,0,0,1,7.7,60.333h229.5a7.37,7.37,0,0,1,7.365,7.372h0A7.369,7.369,0,0,1,237.207,75.077Z" transform="translate(-0.34 72.348)" fill="#fff"/>
          <path id="Path-11" data-name="Path" d="M237.207,94.888H7.7A7.369,7.369,0,0,1,.34,87.516h0A7.369,7.369,0,0,1,7.7,80.145h229.5a7.37,7.37,0,0,1,7.365,7.372h0A7.369,7.369,0,0,1,237.207,94.888Z" transform="translate(-0.34 96.764)" fill="#fff"/>
          <path id="Path-12" data-name="Path" d="M237.207,114.7H7.7A7.369,7.369,0,0,1,.34,107.328h0A7.368,7.368,0,0,1,7.7,99.956h229.5a7.37,7.37,0,0,1,7.365,7.372h0A7.369,7.369,0,0,1,237.207,114.7Z" transform="translate(-0.34 121.18)" fill="#fff"/>
          <path id="Path-13" data-name="Path" d="M237.207,134.51H7.7A7.368,7.368,0,0,1,.34,127.138h0A7.369,7.369,0,0,1,7.7,119.767h229.5a7.371,7.371,0,0,1,7.365,7.372h0A7.368,7.368,0,0,1,237.207,134.51Z" transform="translate(-0.34 145.596)" fill="#fff"/>
          <path id="Path-14" data-name="Path" d="M237.207,154.323H7.7A7.37,7.37,0,0,1,.34,146.949h0A7.369,7.369,0,0,1,7.7,139.578h229.5a7.37,7.37,0,0,1,7.365,7.371h0A7.369,7.369,0,0,1,237.207,154.323Z" transform="translate(-0.34 170.011)" fill="#fff"/>
        </g>
        <g id="组_7537" data-name="组 7537" transform="translate(148.356 162.293)">
          <g id="man_on_ladder_2_" transform="translate(0 0)">
            <rect id="Rectangle" width="100.208" height="8.041" transform="translate(10.858 33.341)" fill="#183168"/>
            <rect id="Rectangle-2" data-name="Rectangle" width="98.503" height="8.041" transform="translate(13.236 97.961)" fill="#183168"/>
            <rect id="Rectangle-3" data-name="Rectangle" width="101.059" height="8.041" transform="translate(10.007 181.379)" fill="#183168"/>
            <rect id="Rectangle-4" data-name="Rectangle" width="85.719" height="8.041" transform="translate(11.445 257.297)" fill="#183168"/>
            <rect id="Rectangle-5" data-name="Rectangle" width="99.354" height="8.041" transform="translate(11.38 417.644)" fill="#183168"/>
            <rect id="Rectangle-6" data-name="Rectangle" width="99.354" height="8.041" transform="translate(10.858 332.066)" fill="#183168"/>
            <rect id="Rectangle-7" data-name="Rectangle" width="8.034" height="483.238" transform="translate(6.622)" fill="#183168"/>
            <rect id="Rectangle-8" data-name="Rectangle" width="8.034" height="483.238" transform="translate(104.492)" fill="#183168"/>
            <path id="Path-15" data-name="Path" d="M28.388,179.349,24.4,190.955s-8.1,7.338-12.3-3.119c0,0,1.306-7.054,1.781-9.633S28.388,179.349,28.388,179.349Z" transform="translate(13.362 217.301)" fill="#f1b282"/>
            <path id="Path-16" data-name="Path" d="M11.532,288.057H31.863s19.03-74.8,24.324-94.608c4.17-15.6,9.018-67.185,7.094-91.207-1.835-22.9-40.763-10.5-42.793,5.587-5.953,47.154,5.125,82.127,4.557,90.373C15.386,222.656,11.532,288.057,11.532,288.057Z" transform="translate(12.662 109.32)" fill="#102b5e"/>
            <path id="Path-17" data-name="Path" d="M53.921,31.422c2.458,5.287,1.253,8.166,1.856,10.394s2.912,6.727,3.009,8.859-2.167,2.424-2.655,5.213.793,6.421-.9,9.342-8.291,2.248-7.9,5.066,4.543,13.286,4.543,13.286l-27.105.436s1.083-15.234-.3-21.533S20.031,33.056,25.659,30.25,51.312,25.809,53.921,31.422Z" transform="translate(26.046 32.907)" fill="#f1b282"/>
            <path id="Path-18" data-name="Path" d="M46.527,25.84c-22.55.7-30.461,6.391-30.2,24.027.153,10.512,5.949,25.063,13.557,25.015,5.487-.034,16.3-.645,18.2-3.647,4.5-7.123.647-16.955,3.661-20.349,4.284-4.825,14.023-2.34,12.683-18.957S54.032,25.6,46.527,25.84Z" transform="translate(18.559 26.495)" fill="#0b224e"/>
            <path id="Path-19" data-name="Path" d="M8.7,34.733S4.855,24.018,5.542,18.287c1.107-9.231,23.057-9.274,24-1.279,1,8.488-2.95,10.709-5.533,12.924A33.531,33.531,0,0,0,17.737,37.5C17,38.981,9.806,38.979,8.7,34.733Z" transform="translate(5.179 12.574)" fill="#f1b282"/>
            <path id="Path-20" data-name="Path" d="M85.257,63.77s8.062-8.033,9.9-13.5C98.105,41.451,78.294,32,74.016,38.813c-4.541,7.239-1.92,10.942-.534,14.05a33.559,33.559,0,0,1,2.424,9.531C75.94,64.045,82.44,67.133,85.257,63.77Z" transform="translate(86.523 43.761)" fill="#f1b282"/>
            <path id="Path-21" data-name="Path" d="M53.033,172.555l-5.839,10.794s-9.2,5.9-11.621-5.1c0,0,2.444-6.742,3.338-9.209S53.033,172.555,53.033,172.555Z" transform="translate(42.293 206.394)" fill="#f1b282"/>
            <path id="Path-22" data-name="Path" d="M67.787,96.851s39.154,55.484,40.108,66.622c1.721,20.1-36.593,99.917-36.593,99.917l-19.817-4.255s13.274-60.166,23.759-80.68c-20.168-27.3-52.12-42.541-52.12-78.194C23.122,90.594,67.787,96.851,67.787,96.851Z" transform="translate(26.949 115.705)" fill="#0b224e"/>
            <path id="Path-23" data-name="Path" d="M54.173,88.291c5.8-.392,16.608.2,22.9.083,16.109-.3,37.874,14.032,55.322,19.156,11.4-12.349,28.116-31.948,28.116-31.948l14.059,8.691s-25.093,43.323-40.52,45.805c-9.335,1.5-24.342.929-35.989-3.906,0,14.509,18.57,71.367,4.925,74.264s-35.145-2.07-48.377,0-27.7,12-24.394-12.83,17.781-22.162-13.229-69.537C8.861,105.66-.594,87.587.84,72.431a269.674,269.674,0,0,1,9.992-51.893l15.386,2.483s-1.327,31.188-4.635,49.4c3.308,8.763,8.3,14.8,14,21.028C38.7,96.865,45.087,87.965,54.173,88.291Z" transform="translate(-0.694 24.11)" fill="#1b90fb"/>
            <path id="Path-24" data-name="Path" d="M13.73,181.641c-1.6-.21-3.3,1.514-3.231,7.914s-.227,9.789,4.734,10.475c3.117.431,14.862-2.677,26.3-2.471,4.131.074,11.731-1.869,14.394-5.423a2.782,2.782,0,0,0,.307-2.659,2.105,2.105,0,0,0-1.952-1.424c-9.217.259-9.377,1.156-16.837-4.148-2.707-1.924-4.969-3.724-6.4-3.822-2.78-.192-4.063,3.514-8.592,3.029S16.5,182.005,13.73,181.641Z" transform="translate(11.386 220.728)" fill="#0b224e"/>
            <path id="Path-25" data-name="Path" d="M38.633,171.46c-1.677-.33-3.862,1.9-4.7,7.818s-2.545,10.642,2.641,11.7c3.258.663,20.211-1.063,32.366.1,4.391.42,9.536-1.71,12.88-4.764a2.392,2.392,0,0,0,.7-2.429,2.065,2.065,0,0,0-1.878-1.482c-9.853-.545-10.152.27-17.343-5.26-2.611-2.009-4.76-3.862-6.268-4.074-2.932-.411-4.7,2.112-9.45,1.281S41.534,172.03,38.633,171.46Z" transform="translate(39.091 210.071)" fill="#0b224e"/>
          </g>
          <g id="man_hand_up" transform="translate(278.64 55.438)">
            <path id="Path-26" data-name="Path" d="M32.483,37.054c-2.31,4.966-1.177,7.671-1.743,9.764S28,53.136,27.912,55.141s2.034,2.278,2.494,4.9-.747,6.033.85,8.777,7.788,2.111,7.423,4.76-4.268,12.482-4.268,12.482l25.465.408s-1.016-14.311.279-20.228S64.32,38.59,59.034,35.954,34.935,31.781,32.483,37.054Z" transform="translate(33.375 40.98)" fill="#f1b282"/>
            <path id="Path-27" data-name="Path" d="M45.569,31.81c21.185.661,28.618,6.005,28.375,22.574-.145,9.875-5.59,23.545-12.737,23.5-5.156-.032-15.316-.605-17.1-3.426-4.226-6.69-.609-15.928-3.44-19.116-4.025-4.533-13.173-2.2-11.916-17.809S38.519,31.589,45.569,31.81Z" transform="translate(34.269 34.956)" fill="#0b224e"/>
            <path id="Path-28" data-name="Path" d="M33.757,185.089V194.5H19.55l0-13.421Z" transform="translate(23.068 222.819)" fill="#f1b282"/>
            <path id="Path-29" data-name="Path" d="M47.855,184.45v11.129H62.3v-13.66Z" transform="translate(57.957 223.851)" fill="#f1b282"/>
            <path id="Path-30" data-name="Path" d="M74.438,109.7s4.358,59.226,5.16,76.322.845,92.7.845,92.7l-15.079.134S54.611,230.1,55.191,202.126c-3.469-11.22-21.785-76.668-22.052-90.025S67.766,103.022,74.438,109.7Z" transform="translate(39.818 127.047)" fill="#0b224e"/>
            <path id="Path-31" data-name="Path" d="M25.494,109.965s-6.25,60.028-7.05,77.124,2.245,91.9,2.245,91.9l15.6,1.06S44.13,239.448,44.8,202c3.469-11.22,24.878-77.148,25.145-90.5S32.166,103.288,25.494,109.965Z" transform="translate(21.545 126.781)" fill="#102b5e"/>
            <path id="Path-32" data-name="Path" d="M60.142,83.639s11.843,14.714,9.441,26.335-17.246,35.172-20.849,40.382,5.943,10.818,5.943,10.818,30.407-39.535,35.211-51.554S73.152,66.212,73.152,66.212Z" transform="translate(58.039 81.25)" fill="#f1b282"/>
            <path id="Path-33" data-name="Path" d="M42.131,115.426S28.8,113.767,21.511,91.089,12.1,37.96,14.757,31.24c4.2-10.645-.319-21.11-1.5-25.481-.9-3.313-3.561-7.87-4.3-4.3-.446,2.143-.1,7.7.733,11.8C10.43,16.9-.989,17.262.611,22.873s3.2,5.249,3.469,9.233S2.212,81.5,5.148,92.188s14.145,38.466,22.418,43.542S42.131,115.426,42.131,115.426Z" transform="translate(-0.457 -0.157)" fill="#f1b282"/>
            <path id="Path-34" data-name="Path" d="M65.2,61.786c6.2-.064,32.426-2,45.434,10.018s17.614,21.237,18.415,23.641-16.013,15.427-19.415,12.822-5.8-7.412-9.807-7.412-2,21.838-.4,33.058,11.209,42.875,4.4,45.88-24.418-1-34.627,1.6S41.98,186,36.377,179.592s4-30.654,4.2-46.28-.4-40.07-9.807-46.28S9.958,78.818,9.556,73.008,25.969,48.765,29.972,50.77,41.239,61.187,48.785,61.388,60.795,61.831,65.2,61.786Z" transform="translate(10.748 62.032)" fill="#ffcb01"/>
            <path id="Path-35" data-name="Path" d="M17.943,189.185c1.211,3.76,5.82,3.17,8.741,3.782s13.1,2.029,13.466-.752-1.064-4.813-.876-6.943,2.524-4.836.163-6.432-6.292-.1-9.148-.027c-2.089.056-9.791-3.226-10.727-1.909s.341,3.849.018,5.487C19.1,184.823,17,186.267,17.943,189.185Z" transform="translate(20.797 217.286)" fill="#355aa2"/>
            <path id="Path-36" data-name="Path" d="M67.871,190.148c-1.406,3.688-5.979,2.86-8.925,3.32s-13.187,1.339-13.41-1.456,1.316-4.75,1.237-6.887-2.269-4.96.175-6.432,6.289.225,9.136.451c2.083.167,9.946-2.71,10.811-1.342s-.542,3.824-.305,5.478C66.943,185.73,68.962,187.284,67.871,190.148Z" transform="translate(55.071 218.321)" fill="#355aa2"/>
            <path id="Path-37" data-name="Path" d="M43.667,187.022c-1.978-2-5.413,1.2-8.911,1.2s-5.445-2.4-7.274-2.538-2.764,4.139-6.632,6.1c-2.3,1.165-7.738,1.739-7.738,8.41,0,1.652,29.59,1.232,30.558.694C45.51,199.858,45.643,189.024,43.667,187.022Z" transform="translate(15.137 228.49)" fill="#102b5e"/>
            <path id="Path-38" data-name="Path" d="M72,187.022c-1.978-2-5.413,1.2-8.911,1.2s-5.445-2.4-7.274-2.538-2.764,4.139-6.632,6.1c-2.3,1.165-7.738,1.739-7.738,8.41,0,1.652,29.59,1.232,30.558.694C73.842,199.858,73.977,189.024,72,187.022Z" transform="translate(50.054 228.49)" fill="#102b5e"/>
          </g>
        </g>
      </g>
    </g>
  </g>
</svg>
