<svg xmlns="http://www.w3.org/2000/svg" xmlns:xlink="http://www.w3.org/1999/xlink" width="686" height="328"><defs><linearGradient id="b" x1=".5" x2=".5" y2="1" gradientUnits="objectBoundingBox"><stop offset="0" stop-color="#fff"/><stop offset="1" stop-color="#5ecfff" stop-opacity="0"/></linearGradient><linearGradient id="a" x1=".777" y1=".88" x2=".184" y2=".304" gradientUnits="objectBoundingBox"><stop offset="0" stop-color="#efbb81"/><stop offset=".501" stop-color="#f79e57"/><stop offset="1" stop-color="#ff7f2a"/></linearGradient><linearGradient id="c" x1=".772" y1=".881" x2=".18" y2=".304" xlink:href="#a"/><linearGradient id="d" x1=".499" y1=".036" x2=".499" y2="1.084" gradientUnits="objectBoundingBox"><stop offset="0" stop-color="#91b3ff"/><stop offset=".507" stop-color="#6791f2"/><stop offset="1" stop-color="#3b6ce4"/></linearGradient><linearGradient id="e" x1=".5" x2=".5" y2="1" gradientUnits="objectBoundingBox"><stop offset="0" stop-color="#99bcff"/><stop offset="1" stop-color="#5ecfff" stop-opacity="0"/></linearGradient></defs><g data-name="组 8618"><g data-name="组 8611"><path data-name="路径 7425" d="M8 0h670c4.418 0 8 3.876 8 8.658v310.684c0 4.782-3.582 8.658-8 8.658H8c-4.418 0-8-3.876-8-8.658V8.658C0 3.876 3.582 0 8 0z" fill="#edf6fe"/></g><g data-name="组 8616" transform="translate(271.341 43.45)" fill="url(#b)"><path data-name="路径 6658" d="M403.074 36.008h-84.472a3.657 3.657 0 00-3.806 3.5v232.358a3.657 3.657 0 003.806 3.5h84.472a3.671 3.671 0 003.806-3.5V39.503a3.671 3.671 0 00-3.806-3.5zm-70.666 162.385a1.215 1.215 0 01-1.282 1.174h-4.859a1.215 1.215 0 01-1.282-1.174v-26.628a1.228 1.228 0 011.282-1.174h4.859a1.228 1.228 0 011.282 1.174zm0-40.8a1.228 1.228 0 01-1.282 1.174h-4.859a1.228 1.228 0 01-1.282-1.174v-26.681a1.228 1.228 0 011.282-1.174h4.859a1.228 1.228 0 011.282 1.174zm0-40.812a1.228 1.228 0 01-1.282 1.174h-4.859a1.228 1.228 0 01-1.282-1.174V90.154a1.228 1.228 0 011.282-1.174h4.859a1.228 1.228 0 011.282 1.174zm0-40.812a1.228 1.228 0 01-1.282 1.174h-4.859a1.228 1.228 0 01-1.282-1.174V49.342a1.228 1.228 0 011.282-1.174h4.859a1.228 1.228 0 011.282 1.174zm15.79 122.423a1.215 1.215 0 01-1.269 1.174h-4.872a1.228 1.228 0 01-1.282-1.174v-26.627a1.242 1.242 0 011.282-1.174h4.872a1.228 1.228 0 011.269 1.174zm0-40.8a1.228 1.228 0 01-1.269 1.174h-4.872a1.242 1.242 0 01-1.282-1.174v-26.68a1.242 1.242 0 011.282-1.174h4.872a1.228 1.228 0 011.269 1.174zm0-40.812a1.228 1.228 0 01-1.269 1.174h-4.872a1.242 1.242 0 01-1.282-1.174V90.154a1.242 1.242 0 011.282-1.174h4.872a1.228 1.228 0 011.269 1.174zm0-40.812a1.228 1.228 0 01-1.269 1.174h-4.872a1.242 1.242 0 01-1.282-1.174V49.342a1.242 1.242 0 011.282-1.174h4.872a1.228 1.228 0 011.269 1.174zm15.79 122.423a1.215 1.215 0 01-1.269 1.174h-4.873a1.215 1.215 0 01-1.269-1.174v-26.626a1.228 1.228 0 011.269-1.174h4.872a1.228 1.228 0 011.269 1.174zm0-40.8a1.228 1.228 0 01-1.269 1.174h-4.873a1.228 1.228 0 01-1.269-1.174v-26.679a1.228 1.228 0 011.269-1.174h4.872a1.228 1.228 0 011.269 1.174zm0-40.812a1.228 1.228 0 01-1.269 1.174h-4.873a1.228 1.228 0 01-1.269-1.174V90.154a1.228 1.228 0 011.269-1.174h4.872a1.228 1.228 0 011.269 1.174zm0-40.812a1.228 1.228 0 01-1.269 1.174h-4.873a1.228 1.228 0 01-1.269-1.174V49.342a1.228 1.228 0 011.269-1.174h4.872a1.228 1.228 0 011.269 1.174zm15.79 122.423a1.215 1.215 0 01-1.269 1.174h-4.872a1.215 1.215 0 01-1.269-1.174v-26.625a1.228 1.228 0 011.269-1.174h4.872a1.228 1.228 0 011.269 1.174zm0-40.8a1.228 1.228 0 01-1.269 1.174h-4.872a1.228 1.228 0 01-1.269-1.174v-26.678a1.228 1.228 0 011.269-1.174h4.872a1.228 1.228 0 011.269 1.174zm0-40.812a1.228 1.228 0 01-1.269 1.174h-4.872a1.228 1.228 0 01-1.269-1.174V90.154a1.228 1.228 0 011.269-1.174h4.872a1.228 1.228 0 011.269 1.174zm0-40.812a1.228 1.228 0 01-1.269 1.174h-4.872a1.228 1.228 0 01-1.269-1.174V49.342a1.228 1.228 0 011.269-1.174h4.872a1.228 1.228 0 011.269 1.174zm15.8 122.423a1.228 1.228 0 01-1.282 1.174h-4.872a1.215 1.215 0 01-1.269-1.174v-26.624a1.228 1.228 0 011.269-1.174h4.872a1.242 1.242 0 011.282 1.174zm0-40.8a1.242 1.242 0 01-1.282 1.174h-4.872a1.228 1.228 0 01-1.269-1.174v-26.677a1.228 1.228 0 011.269-1.174h4.872a1.242 1.242 0 011.282 1.174zm0-40.812a1.242 1.242 0 01-1.282 1.174h-4.872a1.228 1.228 0 01-1.269-1.174V90.154a1.228 1.228 0 011.269-1.174h4.872a1.242 1.242 0 011.282 1.174zm0-40.812a1.242 1.242 0 01-1.282 1.174h-4.872a1.228 1.228 0 01-1.269-1.174V49.342a1.228 1.228 0 011.269-1.174h4.872a1.242 1.242 0 011.282 1.174z" opacity=".4"/><path data-name="路径 6659" d="M201.227 75.052h-80.032a3.657 3.657 0 00-3.779 3.5v193.313a3.657 3.657 0 003.779 3.455h80.032a3.657 3.657 0 003.806-3.5V78.547a3.657 3.657 0 00-3.806-3.5zm-65.632 140.035a1.566 1.566 0 01-1.62 1.5h-7.288a1.566 1.566 0 01-1.62-1.5v-7.046a1.552 1.552 0 011.62-1.485h7.288a1.552 1.552 0 011.62 1.485zm0-17.383a1.552 1.552 0 01-1.62 1.485h-7.288a1.552 1.552 0 01-1.62-1.485v-7.045a1.566 1.566 0 011.62-1.5h7.288a1.566 1.566 0 011.62 1.5zm0-17.4a1.566 1.566 0 01-1.62 1.5h-7.288a1.566 1.566 0 01-1.62-1.5v-7.045a1.552 1.552 0 011.62-1.485h7.288a1.552 1.552 0 011.62 1.485zm0-17.383a1.552 1.552 0 01-1.62 1.485h-7.288a1.552 1.552 0 01-1.62-1.485v-7.045a1.566 1.566 0 011.62-1.5h7.288a1.566 1.566 0 011.62 1.5zm0-17.4a1.566 1.566 0 01-1.62 1.5h-7.288a1.566 1.566 0 01-1.62-1.5v-7.031a1.552 1.552 0 011.62-1.5h7.288a1.552 1.552 0 011.62 1.5zm0-17.383a1.552 1.552 0 01-1.62 1.485h-7.288a1.552 1.552 0 01-1.62-1.485v-7.037a1.566 1.566 0 011.62-1.5h7.288a1.566 1.566 0 011.62 1.5zm0-17.4a1.566 1.566 0 01-1.62 1.5h-7.288a1.566 1.566 0 01-1.62-1.5v-7.02a1.552 1.552 0 011.62-1.5h7.288a1.552 1.552 0 011.62 1.5zm0-17.383a1.552 1.552 0 01-1.62 1.485h-7.288a1.552 1.552 0 01-1.62-1.485v-6.98a1.566 1.566 0 011.62-1.5h7.288a1.566 1.566 0 011.62 1.5zm13.6 121.721a1.566 1.566 0 01-1.62 1.5h-7.22a1.565 1.565 0 01-1.633-1.5v-7.035a1.566 1.566 0 011.633-1.485h7.288a1.552 1.552 0 011.62 1.485zm0-17.383a1.552 1.552 0 01-1.62 1.485h-7.22a1.566 1.566 0 01-1.633-1.485v-7.045a1.566 1.566 0 011.633-1.5h7.288a1.566 1.566 0 011.62 1.5zm0-17.4a1.566 1.566 0 01-1.62 1.5h-7.22a1.566 1.566 0 01-1.633-1.5v-7.045a1.566 1.566 0 011.633-1.485h7.288a1.552 1.552 0 011.62 1.485zm0-17.383a1.552 1.552 0 01-1.62 1.485h-7.22a1.566 1.566 0 01-1.633-1.485v-7.045a1.566 1.566 0 011.633-1.5h7.288a1.566 1.566 0 011.62 1.5zm0-17.4a1.566 1.566 0 01-1.62 1.5h-7.22a1.566 1.566 0 01-1.633-1.5v-7.031a1.566 1.566 0 011.633-1.5h7.288a1.552 1.552 0 011.62 1.5zm0-17.383a1.552 1.552 0 01-1.62 1.485h-7.22a1.566 1.566 0 01-1.633-1.485v-7.026a1.566 1.566 0 011.633-1.5h7.288a1.566 1.566 0 011.62 1.5zm0-17.4a1.566 1.566 0 01-1.62 1.5h-7.22a1.566 1.566 0 01-1.633-1.5v-7.009a1.566 1.566 0 011.633-1.5h7.288a1.552 1.552 0 011.62 1.5zm0-17.383a1.552 1.552 0 01-1.62 1.485h-7.22a1.566 1.566 0 01-1.633-1.485v-6.969a1.566 1.566 0 011.633-1.552h7.288a1.566 1.566 0 011.62 1.5zm13.6 121.721a1.566 1.566 0 01-1.633 1.5h-7.315a1.565 1.565 0 01-1.619-1.5v-7.024a1.552 1.552 0 011.62-1.485h7.288a1.566 1.566 0 011.633 1.485zm0-17.383a1.566 1.566 0 01-1.633 1.485h-7.315a1.552 1.552 0 01-1.619-1.485v-7.045a1.566 1.566 0 011.62-1.5h7.288a1.565 1.565 0 011.633 1.5zm0-17.4a1.566 1.566 0 01-1.633 1.5h-7.315a1.565 1.565 0 01-1.619-1.5v-7.045a1.552 1.552 0 011.62-1.485h7.288a1.566 1.566 0 011.633 1.485zm0-17.383a1.566 1.566 0 01-1.633 1.485h-7.315a1.552 1.552 0 01-1.619-1.485v-7.045a1.566 1.566 0 011.62-1.5h7.288a1.566 1.566 0 011.633 1.5zm0-17.4a1.566 1.566 0 01-1.633 1.5h-7.315a1.566 1.566 0 01-1.619-1.5v-7.031a1.552 1.552 0 011.62-1.5h7.288a1.566 1.566 0 011.633 1.5zm0-17.383a1.566 1.566 0 01-1.633 1.485h-7.315a1.552 1.552 0 01-1.619-1.485v-7.015a1.566 1.566 0 011.62-1.5h7.288a1.566 1.566 0 011.633 1.5zm0-17.4a1.566 1.566 0 01-1.633 1.5h-7.315a1.565 1.565 0 01-1.619-1.5v-6.998a1.552 1.552 0 011.62-1.5h7.288a1.566 1.566 0 011.633 1.5zm0-17.383a1.566 1.566 0 01-1.633 1.485h-7.315a1.552 1.552 0 01-1.619-1.485v-6.958a1.566 1.566 0 011.62-1.5h7.288a1.566 1.566 0 011.66 1.5zm34.024 121.721a1.566 1.566 0 01-1.62 1.5h-27.712a1.566 1.566 0 01-1.62-1.5v-7.013a1.552 1.552 0 011.62-1.485h27.721a1.552 1.552 0 011.62 1.485zm0-17.383a1.552 1.552 0 01-1.62 1.485h-27.712a1.552 1.552 0 01-1.62-1.485v-7.045a1.566 1.566 0 011.62-1.5h27.721a1.566 1.566 0 011.62 1.5zm0-17.4a1.566 1.566 0 01-1.62 1.5h-27.712a1.566 1.566 0 01-1.62-1.5v-7.045a1.552 1.552 0 011.62-1.485h27.721a1.552 1.552 0 011.62 1.485zm0-17.383a1.552 1.552 0 01-1.62 1.485h-27.712a1.552 1.552 0 01-1.62-1.485v-7.045a1.566 1.566 0 011.62-1.5h27.721a1.566 1.566 0 011.62 1.5zm0-17.4a1.566 1.566 0 01-1.62 1.5h-27.712a1.566 1.566 0 01-1.62-1.5v-7.031a1.552 1.552 0 011.62-1.5h27.721a1.552 1.552 0 011.62 1.5zm0-17.383a1.552 1.552 0 01-1.62 1.485h-27.712a1.552 1.552 0 01-1.62-1.485v-7.004a1.566 1.566 0 011.62-1.5h27.721a1.566 1.566 0 011.62 1.5zm0-17.4a1.566 1.566 0 01-1.62 1.5h-27.712a1.566 1.566 0 01-1.62-1.5v-6.987a1.552 1.552 0 011.62-1.5h27.721a1.552 1.552 0 011.62 1.5zm0-17.383a1.552 1.552 0 01-1.62 1.485h-27.712a1.552 1.552 0 01-1.62-1.485v-6.947a1.566 1.566 0 011.62-1.5h27.721a1.566 1.566 0 011.62 1.5z" opacity=".4"/><path data-name="路径 6661" d="M302.596 22.562h-88.251a3.239 3.239 0 00-3.267 3.217v253.79a2.978 2.978 0 00.906 2.238 3.521 3.521 0 002.36.991h88.251a3.236 3.236 0 003.253-3.229V25.779a3.237 3.237 0 00-3.252-3.217zm-7.855 166.767a1.364 1.364 0 01-1.35 1.366h-69.8a1.364 1.364 0 01-1.35-1.366v-6.483a1.376 1.376 0 011.35-1.379h69.761a1.376 1.376 0 011.35 1.379zm0-18.232a1.376 1.376 0 01-1.35 1.379h-69.8a1.376 1.376 0 01-1.35-1.379v-6.483a1.364 1.364 0 011.35-1.366h69.761a1.364 1.364 0 011.35 1.366zm0-18.232a1.376 1.376 0 01-1.35 1.379h-69.8a1.376 1.376 0 01-1.35-1.379v-6.47a1.376 1.376 0 011.35-1.379h69.761a1.376 1.376 0 011.35 1.379zm0-18.219a1.364 1.364 0 01-1.35 1.366h-69.8a1.364 1.364 0 01-1.35-1.366v-6.52a1.376 1.376 0 011.35-1.379h69.761a1.376 1.376 0 011.35 1.379zm0-18.232a1.376 1.376 0 01-1.35 1.379h-69.8a1.376 1.376 0 01-1.35-1.379v-6.482a1.364 1.364 0 011.348-1.37h69.761a1.364 1.364 0 011.35 1.366zm0-18.232a1.376 1.376 0 01-1.35 1.38h-69.8a1.376 1.376 0 01-1.35-1.379v-6.47a1.376 1.376 0 011.35-1.379h69.761a1.376 1.376 0 011.35 1.379zm0-18.219a1.364 1.364 0 01-1.35 1.366h-69.8a1.364 1.364 0 01-1.35-1.366v-6.482a1.376 1.376 0 011.35-1.379h69.761a1.376 1.376 0 011.35 1.379zm0-18.232a1.376 1.376 0 01-1.35 1.379h-69.8a1.376 1.376 0 01-1.35-1.379V55.25a1.364 1.364 0 011.35-1.366h69.761a1.364 1.364 0 011.35 1.366zm0-18.232a1.376 1.376 0 01-1.35 1.379h-69.8a1.376 1.376 0 01-1.35-1.379v-6.47a1.376 1.376 0 011.35-1.379h69.761a1.376 1.376 0 011.35 1.379z" opacity=".4"/><path data-name="路径 6660" d="M106.795 36.008H3.819A3.657 3.657 0 000 39.503v232.363a3.657 3.657 0 003.819 3.455h102.976a3.657 3.657 0 003.806-3.5V39.503a3.657 3.657 0 00-3.806-3.495zm-9.164 181.28a1.566 1.566 0 01-1.62 1.5H14.616a1.566 1.566 0 01-1.633-1.5v-7.031a1.566 1.566 0 011.633-1.5h81.395a1.552 1.552 0 011.62 1.5zm0-19.8a1.552 1.552 0 01-1.62 1.485H14.616a1.566 1.566 0 01-1.633-1.485v-7.045a1.566 1.566 0 011.633-1.5h81.395a1.566 1.566 0 011.62 1.5zm0-19.812a1.566 1.566 0 01-1.62 1.5H14.616a1.566 1.566 0 01-1.633-1.5v-7.049a1.566 1.566 0 011.633-1.485h81.395a1.552 1.552 0 011.62 1.485zm0-19.812a1.566 1.566 0 01-1.62 1.5H14.616a1.566 1.566 0 01-1.633-1.5v-7.031a1.566 1.566 0 011.633-1.5h81.395a1.552 1.552 0 011.62 1.5zm0-19.8a1.552 1.552 0 01-1.62 1.485H14.616a1.566 1.566 0 01-1.633-1.485v-7.153a1.566 1.566 0 011.633-1.5h81.395a1.566 1.566 0 011.62 1.5zm0-19.812a1.566 1.566 0 01-1.62 1.5H14.616a1.566 1.566 0 01-1.633-1.5v-7.112a1.566 1.566 0 011.633-1.485h81.395a1.552 1.552 0 011.62 1.485zm0-19.812a1.566 1.566 0 01-1.62 1.5H14.616a1.566 1.566 0 01-1.633-1.5v-7.1a1.566 1.566 0 011.633-1.5h81.395a1.552 1.552 0 011.62 1.5zm0-19.8a1.552 1.552 0 01-1.62 1.485H14.616a1.566 1.566 0 01-1.633-1.485v-7.113a1.566 1.566 0 011.633-1.5h81.395a1.566 1.566 0 011.62 1.5zm0-19.812a1.566 1.566 0 01-1.62 1.5H14.616a1.566 1.566 0 01-1.633-1.5v-7.111a1.566 1.566 0 011.633-1.485h81.395a1.552 1.552 0 011.62 1.485z" opacity=".4"/></g><g data-name="组 8613"><g data-name="组 8571"><path data-name="路径 10125" d="M73.217 326.247V197.46h51.565v-92.741h88.048v221.528z" fill="#e2f2fe"/><g data-name="组 8570" fill="#fff"><path data-name="矩形 941" d="M133.542 120.051h18.023v14.393h-18.023z"/><path data-name="矩形 942" d="M160.576 120.051h18.023v14.393h-18.023z"/><path data-name="矩形 943" d="M187.61 120.051h18.023v14.393H187.61z"/><path data-name="矩形 944" d="M133.542 142.579h18.023v14.393h-18.023z"/><path data-name="矩形 945" d="M160.576 142.579h18.023v14.393h-18.023z"/><path data-name="矩形 946" d="M187.61 142.579h18.023v14.393H187.61z"/><path data-name="矩形 947" d="M133.542 165.045h18.023v14.393h-18.023z"/><path data-name="矩形 948" d="M160.576 165.045h18.023v14.393h-18.023z"/><path data-name="矩形 949" d="M187.61 165.045h18.023v14.393H187.61z"/><path data-name="矩形 950" d="M133.542 187.573h18.023v14.393h-18.023z"/><path data-name="矩形 951" d="M160.576 187.573h18.023v14.393h-18.023z"/><path data-name="矩形 952" d="M187.61 187.573h18.023v14.393H187.61z"/><path data-name="矩形 953" d="M133.542 210.101h18.023v14.393h-18.023z"/><path data-name="矩形 954" d="M106.571 210.101h18.023v14.393h-18.023z"/><path data-name="矩形 955" d="M79.537 210.101H97.56v14.393H79.537z"/><path data-name="矩形 956" d="M160.576 210.101h18.023v14.393h-18.023z"/><path data-name="矩形 957" d="M187.61 210.101h18.023v14.393H187.61z"/><path data-name="矩形 958" d="M133.542 232.63h18.023v14.393h-18.023z"/><path data-name="矩形 959" d="M106.571 232.63h18.023v14.393h-18.023z"/><path data-name="矩形 960" d="M79.537 232.63H97.56v14.393H79.537z"/><path data-name="矩形 961" d="M160.576 232.63h18.023v14.393h-18.023z"/><path data-name="矩形 962" d="M187.61 232.63h18.023v14.393H187.61z"/><path data-name="矩形 963" d="M133.542 255.095h18.023v14.393h-18.023z"/><path data-name="矩形 964" d="M106.571 255.095h18.023v14.393h-18.023z"/><path data-name="矩形 965" d="M79.537 255.095H97.56v14.393H79.537z"/><path data-name="矩形 966" d="M160.576 255.095h18.023v14.393h-18.023z"/><path data-name="矩形 967" d="M187.61 255.095h18.023v14.393H187.61z"/><path data-name="矩形 968" d="M133.542 277.624h18.023v14.393h-18.023z"/><path data-name="矩形 969" d="M106.571 277.624h18.023v14.393h-18.023z"/><path data-name="矩形 970" d="M79.537 277.624H97.56v14.393H79.537z"/><path data-name="矩形 971" d="M160.576 277.624h18.023v14.393h-18.023z"/><path data-name="矩形 972" d="M187.61 277.624h18.023v14.393H187.61z"/></g></g><g data-name="组 8573"><path data-name="路径 10126" d="M429.587 326.248v-81.1h39.675v-93.619h60.325v44.118h35.107v130.6z" fill="#e2f2fe"/><g data-name="组 8572" fill="#fff"><path data-name="矩形 973" d="M478.211 163.231h18.023v14.393h-18.023z"/><path data-name="矩形 974" d="M503.43 163.231h18.023v14.393H503.43z"/><path data-name="矩形 975" d="M478.211 253.281h18.023v14.393h-18.023z"/><path data-name="矩形 976" d="M453.054 253.281h18.023v14.393h-18.023z"/><path data-name="矩形 977" d="M453.054 275.81h18.023v14.393h-18.023z"/><path data-name="矩形 978" d="M503.43 253.281h18.023v14.393H503.43z"/><path data-name="矩形 979" d="M478.211 185.759h18.023v14.393h-18.023z"/><path data-name="矩形 980" d="M503.43 185.759h18.023v14.393H503.43z"/><path data-name="矩形 981" d="M478.211 208.225h18.023v14.393h-18.023z"/><path data-name="矩形 982" d="M503.43 208.225h18.023v14.393H503.43z"/><path data-name="矩形 983" d="M528.649 208.225h18.023v14.393h-18.023z"/><path data-name="矩形 984" d="M528.649 230.753h18.023v14.393h-18.023z"/><path data-name="矩形 985" d="M528.649 253.281h18.023v14.393h-18.023z"/><path data-name="矩形 986" d="M528.649 275.81h18.023v14.393h-18.023z"/><path data-name="矩形 987" d="M478.211 230.753h18.023v14.393h-18.023z"/><path data-name="矩形 988" d="M503.43 230.753h18.023v14.393H503.43z"/><path data-name="矩形 989" d="M478.211 275.81h18.023v14.393h-18.023z"/><path data-name="矩形 990" d="M503.43 275.81h18.023v14.393H503.43z"/></g></g><g data-name="组 8582"><g data-name="组 8581"><g data-name="组 8577"><path data-name="路径 10129" d="M729.118 606.948a13.879 13.879 0 004.005-11.64c-.751-5.131-4.443-9.136-9.512-11.139a11.054 11.054 0 00-.125-3.5 10.451 10.451 0 10-20.463 4.255 7.291 7.291 0 00.688 2.065c-4.318 3.379-6.821 8.386-6.07 13.517a12.92 12.92 0 002.816 6.32c-3.254 2.128-5.257 5.006-5.257 8.135 0 6.571 8.761 11.89 19.525 11.89s19.524-5.319 19.524-11.89c0-3.07-1.94-5.886-5.131-8.013z" transform="translate(-227.753 -334.267)" fill="url(#a)"/><g data-name="组 8576"><g data-name="组 8575"><path data-name="路径 10130" d="M486.596 309.164a2.879 2.879 0 01-.751-2.691c2.753-22.278.813-34.293-.125-38.361a3.632 3.632 0 01.375-2.753c.563-.813 1.314-.438 1.627.876 1.126 5.006 3.191 18.085.25 41.364-.185 1.19-.813 1.94-1.376 1.565z" fill="#ff7f2a"/></g></g></g><g data-name="组 8580"><path data-name="路径 10131" d="M793.774 662.545a8.036 8.036 0 002.315-6.633 8.394 8.394 0 00-5.444-6.383 7.238 7.238 0 00-.063-2 6.066 6.066 0 00-7.071-4.693 5.967 5.967 0 00-4.568 7.134 3.775 3.775 0 00.375 1.189 8.236 8.236 0 00-3.442 7.7 7.116 7.116 0 001.627 3.63 5.64 5.64 0 00-3 4.631c0 3.755 5.006 6.758 11.139 6.758s11.139-3.066 11.139-6.758a6.091 6.091 0 00-3.007-4.575z" transform="translate(-257.428 -360.641)" fill="url(#c)"/><g data-name="组 8579"><g data-name="组 8578"><path data-name="路径 10132" d="M527.898 322.744a1.816 1.816 0 01-.438-1.564c1.564-12.7.5-19.525-.062-21.9a2.159 2.159 0 01.188-1.564c.313-.5.751-.25.939.5.626 2.816 1.815 10.325.125 23.592-.063.685-.439 1.123-.752.936z" fill="#ff7f2a"/></g></g></g></g></g></g><g data-name="组 8614" transform="translate(-11.717 -197.109)"><path data-name="路径 10133" d="M483.003 448.72H226.431a6.276 6.276 0 01-6.258-6.258v-162.7a6.276 6.276 0 016.258-6.258h256.572a6.276 6.276 0 016.258 6.258v162.7a6.276 6.276 0 01-6.258 6.258z" fill="#dfe8ff"/><path data-name="路径 10134" d="M306.281 365.491a25.079 25.079 0 00-35.419 0l-50.689 50.688v26.22a6.276 6.276 0 006.258 6.258h148.812a25.034 25.034 0 00-7.071-21.277z" fill="#aac5ff"/><circle data-name="椭圆 1304" cx="12.516" cy="12.516" r="12.516" transform="translate(263.415 296.779)" fill="url(#d)"/><path data-name="路径 10135" d="M397.083 341.648l-87.109 87.047a34.929 34.929 0 00-9.95 20.028h182.98a6.276 6.276 0 006.258-6.258v-58.388l-42.428-42.428a35.126 35.126 0 00-49.751-.001z" fill="#a0b9f1"/></g><path data-name="路径 10214" d="M502.527 271.593c-28.78-28.781-76.327-47.163-224.652-47.163S82.028 242.787 53.21 271.593z" transform="translate(71.588 56.407)" fill="url(#e)"/><g data-name="组 8617" transform="translate(-211.076 43.45)" fill="url(#b)"><path data-name="路径 6658" d="M403.074 36.008h-84.472a3.657 3.657 0 00-3.806 3.5v232.358a3.657 3.657 0 003.806 3.5h84.472a3.671 3.671 0 003.806-3.5V39.503a3.671 3.671 0 00-3.806-3.5zm-70.666 162.385a1.215 1.215 0 01-1.282 1.174h-4.859a1.215 1.215 0 01-1.282-1.174v-26.628a1.228 1.228 0 011.282-1.174h4.859a1.228 1.228 0 011.282 1.174zm0-40.8a1.228 1.228 0 01-1.282 1.174h-4.859a1.228 1.228 0 01-1.282-1.174v-26.681a1.228 1.228 0 011.282-1.174h4.859a1.228 1.228 0 011.282 1.174zm0-40.812a1.228 1.228 0 01-1.282 1.174h-4.859a1.228 1.228 0 01-1.282-1.174V90.154a1.228 1.228 0 011.282-1.174h4.859a1.228 1.228 0 011.282 1.174zm0-40.812a1.228 1.228 0 01-1.282 1.174h-4.859a1.228 1.228 0 01-1.282-1.174V49.342a1.228 1.228 0 011.282-1.174h4.859a1.228 1.228 0 011.282 1.174zm15.79 122.423a1.215 1.215 0 01-1.269 1.174h-4.872a1.228 1.228 0 01-1.282-1.174v-26.627a1.242 1.242 0 011.282-1.174h4.872a1.228 1.228 0 011.269 1.174zm0-40.8a1.228 1.228 0 01-1.269 1.174h-4.872a1.242 1.242 0 01-1.282-1.174v-26.68a1.242 1.242 0 011.282-1.174h4.872a1.228 1.228 0 011.269 1.174zm0-40.812a1.228 1.228 0 01-1.269 1.174h-4.872a1.242 1.242 0 01-1.282-1.174V90.154a1.242 1.242 0 011.282-1.174h4.872a1.228 1.228 0 011.269 1.174zm0-40.812a1.228 1.228 0 01-1.269 1.174h-4.872a1.242 1.242 0 01-1.282-1.174V49.342a1.242 1.242 0 011.282-1.174h4.872a1.228 1.228 0 011.269 1.174zm15.79 122.423a1.215 1.215 0 01-1.269 1.174h-4.873a1.215 1.215 0 01-1.269-1.174v-26.626a1.228 1.228 0 011.269-1.174h4.872a1.228 1.228 0 011.269 1.174zm0-40.8a1.228 1.228 0 01-1.269 1.174h-4.873a1.228 1.228 0 01-1.269-1.174v-26.679a1.228 1.228 0 011.269-1.174h4.872a1.228 1.228 0 011.269 1.174zm0-40.812a1.228 1.228 0 01-1.269 1.174h-4.873a1.228 1.228 0 01-1.269-1.174V90.154a1.228 1.228 0 011.269-1.174h4.872a1.228 1.228 0 011.269 1.174zm0-40.812a1.228 1.228 0 01-1.269 1.174h-4.873a1.228 1.228 0 01-1.269-1.174V49.342a1.228 1.228 0 011.269-1.174h4.872a1.228 1.228 0 011.269 1.174zm15.79 122.423a1.215 1.215 0 01-1.269 1.174h-4.872a1.215 1.215 0 01-1.269-1.174v-26.625a1.228 1.228 0 011.269-1.174h4.872a1.228 1.228 0 011.269 1.174zm0-40.8a1.228 1.228 0 01-1.269 1.174h-4.872a1.228 1.228 0 01-1.269-1.174v-26.678a1.228 1.228 0 011.269-1.174h4.872a1.228 1.228 0 011.269 1.174zm0-40.812a1.228 1.228 0 01-1.269 1.174h-4.872a1.228 1.228 0 01-1.269-1.174V90.154a1.228 1.228 0 011.269-1.174h4.872a1.228 1.228 0 011.269 1.174zm0-40.812a1.228 1.228 0 01-1.269 1.174h-4.872a1.228 1.228 0 01-1.269-1.174V49.342a1.228 1.228 0 011.269-1.174h4.872a1.228 1.228 0 011.269 1.174zm15.8 122.423a1.228 1.228 0 01-1.282 1.174h-4.872a1.215 1.215 0 01-1.269-1.174v-26.624a1.228 1.228 0 011.269-1.174h4.872a1.242 1.242 0 011.282 1.174zm0-40.8a1.242 1.242 0 01-1.282 1.174h-4.872a1.228 1.228 0 01-1.269-1.174v-26.677a1.228 1.228 0 011.269-1.174h4.872a1.242 1.242 0 011.282 1.174zm0-40.812a1.242 1.242 0 01-1.282 1.174h-4.872a1.228 1.228 0 01-1.269-1.174V90.154a1.228 1.228 0 011.269-1.174h4.872a1.242 1.242 0 011.282 1.174zm0-40.812a1.242 1.242 0 01-1.282 1.174h-4.872a1.228 1.228 0 01-1.269-1.174V49.342a1.228 1.228 0 011.269-1.174h4.872a1.242 1.242 0 011.282 1.174z" opacity=".4"/><path data-name="路径 6661" d="M302.596 22.562h-88.251a3.239 3.239 0 00-3.267 3.217v253.79a2.978 2.978 0 00.906 2.238 3.521 3.521 0 002.36.991h88.251a3.236 3.236 0 003.253-3.229V25.779a3.237 3.237 0 00-3.252-3.217zm-7.855 166.767a1.364 1.364 0 01-1.35 1.366h-69.8a1.364 1.364 0 01-1.35-1.366v-6.483a1.376 1.376 0 011.35-1.379h69.761a1.376 1.376 0 011.35 1.379zm0-18.232a1.376 1.376 0 01-1.35 1.379h-69.8a1.376 1.376 0 01-1.35-1.379v-6.483a1.364 1.364 0 011.35-1.366h69.761a1.364 1.364 0 011.35 1.366zm0-18.232a1.376 1.376 0 01-1.35 1.379h-69.8a1.376 1.376 0 01-1.35-1.379v-6.47a1.376 1.376 0 011.35-1.379h69.761a1.376 1.376 0 011.35 1.379zm0-18.219a1.364 1.364 0 01-1.35 1.366h-69.8a1.364 1.364 0 01-1.35-1.366v-6.52a1.376 1.376 0 011.35-1.379h69.761a1.376 1.376 0 011.35 1.379zm0-18.232a1.376 1.376 0 01-1.35 1.379h-69.8a1.376 1.376 0 01-1.35-1.379v-6.482a1.364 1.364 0 011.348-1.37h69.761a1.364 1.364 0 011.35 1.366zm0-18.232a1.376 1.376 0 01-1.35 1.38h-69.8a1.376 1.376 0 01-1.35-1.379v-6.47a1.376 1.376 0 011.35-1.379h69.761a1.376 1.376 0 011.35 1.379zm0-18.219a1.364 1.364 0 01-1.35 1.366h-69.8a1.364 1.364 0 01-1.35-1.366v-6.482a1.376 1.376 0 011.35-1.379h69.761a1.376 1.376 0 011.35 1.379zm0-18.232a1.376 1.376 0 01-1.35 1.379h-69.8a1.376 1.376 0 01-1.35-1.379V55.25a1.364 1.364 0 011.35-1.366h69.761a1.364 1.364 0 011.35 1.366zm0-18.232a1.376 1.376 0 01-1.35 1.379h-69.8a1.376 1.376 0 01-1.35-1.379v-6.47a1.376 1.376 0 011.35-1.379h69.761a1.376 1.376 0 011.35 1.379z" opacity=".4"/></g><g data-name="组 8615"><g data-name="组 8584"><path data-name="路径 10136" d="M298.235 308.85a9.247 9.247 0 002.253 3.567c1.314 1.064 4.068 2.816 4.756 4.005.438.688.063 2.128-1.752 2.19-2.378.063-7.447-2.941-7.822-3.379s-.188-2.566-.5-5.632z" fill="#353535"/><path data-name="路径 10137" d="M283.717 258.91l12.14 53.818a2 2 0 001.377 1.126s3.129-.438 2.941-.688c-.814-1.064-1.189-.876-1.752-3.567-.939-4.13-1.314-19.712-1.564-22.591s-1.94-6.008-1.94-8.323c0-2.378-.25-21.777-.25-21.777z" fill="#fdcaca"/></g><g data-name="组 8585"><path data-name="路径 10138" d="M270.763 308.85a9.247 9.247 0 01-2.253 3.567c-1.314 1.064-4.068 2.816-4.756 4.005-.438.688-.063 2.128 1.752 2.19 2.378.063 7.447-2.941 7.822-3.379s.188-2.566.5-5.632z" fill="#353535"/><path data-name="路径 10139" d="M285.344 258.91l-12.14 53.818a2 2 0 01-1.377 1.126s-3.129-.438-2.941-.688c.814-1.064 1.189-.876 1.752-3.567.939-4.13 1.314-19.712 1.564-22.591s1.94-6.008 1.94-8.323c0-2.378.25-21.777.25-21.777z" fill="#fdcaca"/></g><path data-name="路径 10140" d="M284.468 179c-2.19.25-5.006 3.192-5.757 6.821s-.188 7.885-.5 9.637-2 5.695-.313 9.074a8.28 8.28 0 008.073 4.631c3.129-.125 8.448-.876 9.575-6.7.751-3.817-.626-4.568-.814-7.509-.25-2.879.563-10.7-1.439-13.392-2-2.753-4.193-1-4.193-1a6.193 6.193 0 00-4.632-1.562z" fill="#7d1c1c"/><path data-name="路径 10141" d="M275.019 238.7h18.774s2.566 4.631 2.691 8.7c.125 4.13.125 17.459.5 19.587s-10.263 1.377-12.14 1.439c-1.815.063-12.891 1.252-12.891-2.5s-.063-15.9.188-18.336c.316-2.319 2.878-8.89 2.878-8.89z" fill="#599af0"/><path data-name="路径 10142" d="M280.651 186.885v8.26a5.927 5.927 0 005.82 4.506c4.881 0 5.444-4.068 5.444-4.068v-9.887s.375-2.378-2.816-2.941a10.286 10.286 0 01-8.448 4.13z" fill="#fdcaca"/><path data-name="路径 10143" d="M301.866 203.782v-1.69a5.921 5.921 0 01-2.941-4.693c-.063-1.815.939-1.815.939-1.815l-.813-5.257a.773.773 0 01.563-1.064c.626-.125.814 1.064.814 1.064l.939 4.693a8.958 8.958 0 01.25-2.441c.313-.375 1.189-.563 1.377.25v.688a.976.976 0 011.189-.751c.939.25.563 1.439.563 1.439s.5-.751 1-.438c.438.313.5 3 0 3.692 0 0 .188 2.5-1.064 3.5l.125 2.5z" fill="#fdcaca"/><path data-name="路径 10144" d="M284.343 198.462s.063 4.13-.438 4.881-2.753 1.189-3.942 1.189-1.314 3.442-.313 4.13 2.816 3.129 6.383 3c3.63-.125 6.821-3.254 6.821-3.254s1.627-3 0-3.755c0 0-3.317-.063-4.193-1.377l-.563-4.756h-3.755z" fill="#fdcaca"/><path data-name="路径 10145" d="M279.837 204.53s3.254 4.255 6.446 4.255 5.632-4.068 5.632-4.068a6.876 6.876 0 014.255.438c1.752 1 5.006 6.32 5.006 6.32l.25-8.2 3.692-.751s2.065 16.959 2.065 17.4.313 2.628-1.064 3.379c-1.377.688-3.191.188-5.131-1.564-1.94-1.815-5.382-9.449-6.008-9.262s-1.126 7.572-.939 10.451 1.94 17.585 2.378 19.337c0 0-3.192.939-12.2.939a101.159 101.159 0 01-11.577-.375s4.881-15.582 4.506-20.588 0-10.075-.939-10.075-7.885 8.323-7.885 8.323-.813.813-.813 1.252 5.131 10.763 5.131 10.763l-3.5 2.691-8.573-12.015a2.379 2.379 0 01-.438-2.065c.188-1.5 13.267-15.332 13.267-15.332a12.339 12.339 0 016.439-1.253z" fill="#ffb056"/><path data-name="路径 10146" d="M272.387 232.693s.375.876.814.751.5-1.189 1.314-1.064 2.628.939 2.816 1.564-.626.876-.814.813c0 0 .5.876.063 1.189s-1.252.188-1.252 0 .876.751.751 1.126a1.052 1.052 0 01-1.064.563s.438.626-.188.876c-.563.25-3-.939-3.254-2.378a15.781 15.781 0 01-1.69-1.564z" fill="#fdcaca"/></g></g></svg>