<svg viewBox="0 0 9 9" xmlns="http://www.w3.org/2000/svg" fill-rule="evenodd" clip-rule="evenodd" stroke-linejoin="round" stroke-miterlimit="2"><path d="M4.183.042a4.182 4.182 0 110 8.365 4.182 4.182 0 010-8.365zm0 .57a3.612 3.612 0 100 7.224 3.612 3.612 0 000-7.224zm.114 1.711c.042 0 .076.034.076.076v1.668c0 .02.006.04.018.056l.01.011L5.947 5.68a.077.077 0 010 .107l-.296.296a.076.076 0 01-.108 0L3.997 4.537a.665.665 0 01-.193-.43l-.001-.04V2.399c0-.042.034-.076.076-.076h.418z" fill="#333" fill-rule="nonzero"/></svg>