<svg xmlns="http://www.w3.org/2000/svg" width="32" height="32" viewBox="0 0 32 32"><defs><style>.a{fill:none;}.b{fill:#508cff;}</style></defs><g transform="translate(-1645 54)"><rect class="a" width="32" height="32" transform="translate(1645 -54)"/><path class="b" d="M24.575,30H7.353a2.133,2.133,0,0,0,.274-1.036V11.974a2.075,2.075,0,0,0-.077-.553c2.22-.606,6.087-2.539,7.042-8.689a3.163,3.163,0,0,1,6.3.412V9.455a1.023,1.023,0,0,0,.767.863l7.124,0,.134,0a2.892,2.892,0,0,1,2.446,1.143,3.671,3.671,0,0,1,.38,3.287l-3.6,12.6A4.39,4.39,0,0,1,24.575,30ZM4.63,29.96H4.6l-.01-.006H2.241A2.286,2.286,0,0,1,0,27.631V13.27a2.286,2.286,0,0,1,2.241-2.322H4.63v.031c.818,0,1.509.456,1.509,1v16.99C6.139,29.5,5.448,29.96,4.63,29.96Z" transform="translate(1645.045 -54)"/></g></svg>