<svg xmlns="http://www.w3.org/2000/svg" xmlns:xlink="http://www.w3.org/1999/xlink" width="750" height="750" viewBox="0 0 750 750">
  <defs>
    <clipPath id="clip-path">
      <rect id="矩形_915" data-name="矩形 915" width="730" height="730" transform="translate(0 -0.393)"/>
    </clipPath>
    <linearGradient id="linear-gradient" x1="0.371" y1="-511.98" x2="0.629" y2="-509.089" gradientUnits="objectBoundingBox">
      <stop offset="0.112" stop-color="#f8f9fd"/>
      <stop offset="0.92" stop-color="#e2e6ed"/>
    </linearGradient>
    <linearGradient id="linear-gradient-2" x1="0.5" x2="0.5" y2="1" gradientUnits="objectBoundingBox">
      <stop offset="0" stop-color="#ffd7c2"/>
      <stop offset="1" stop-color="#ffa5a5"/>
    </linearGradient>
    <linearGradient id="linear-gradient-4" y1="-120.208" x2="1" y2="-120.208" gradientUnits="objectBoundingBox">
      <stop offset="0" stop-color="#ffc565"/>
      <stop offset="1" stop-color="#ff7f19"/>
    </linearGradient>
    <linearGradient id="linear-gradient-5" x1="0" y1="0.261" x2="1" y2="0.261" xlink:href="#linear-gradient-4"/>
  </defs>
  <g id="组_8666" data-name="组 8666" transform="translate(-586 -632)">
    <rect id="矩形_966" data-name="矩形 966" width="750" height="750" transform="translate(586 632)" fill="none"/>
    <g id="组_7644" data-name="组 7644" transform="translate(586 645.393)">
      <g id="组_7643" data-name="组 7643">
        <g id="组_7642" data-name="组 7642" clip-path="url(#clip-path)">
          <path id="路径_8792" data-name="路径 8792" d="M13.9,206.8H384.5s-14.178,107.316,52.314,95.827c-6.111,2.934-13.69,4.889-43.024,4.889H70.614C57.9,307.761,13.9,304.583,13.9,206.8Z" transform="translate(19.027 297.683)" fill="#fff" opacity="0.22"/>
          <g id="组_7641" data-name="组 7641" transform="translate(90.13 121.071)">
            <g id="组_7634" data-name="组 7634" transform="translate(356.626 394.011)">
              <path id="路径_8793" data-name="路径 8793" d="M205.1,200.5v97.049s20.534,16.868,89.471,16.868c68.2,0,93.382-16.868,93.382-16.868L388.2,200.5Z" transform="translate(-205.1 -186.322)" fill="#f8d8af"/>
              <ellipse id="椭圆_49" data-name="椭圆 49" cx="91.427" cy="14.178" rx="91.427" ry="14.178" fill="url(#linear-gradient)"/>
            </g>
            <g id="组_7640" data-name="组 7640">
              <path id="路径_8794" data-name="路径 8794" d="M129.7,140.694H341.4s5.134-65.27-23.468-89.96C312.309,46.334,302.286,39,247.772,39H127.5Z" transform="translate(93 -39)" fill="#f8f9fd" opacity="0.22"/>
              <path id="路径_8795" data-name="路径 8795" d="M447.5,49.9s-31.29-22.979-31.29,42.291V511.676s4.889,38.135-33,38.135H37.3V79.722c0-6.111.978-40.58,29.824-40.58H414.007C425.008,38.9,439.675,38.653,447.5,49.9Z" transform="translate(-37.3 -38.898)" fill="#fff" opacity="0.22"/>
              <g id="组_7635" data-name="组 7635" transform="translate(39.357 64.048)">
                <path id="路径_8796" data-name="路径 8796" d="M63.912,86.323H221.83a10.512,10.512,0,0,0,0-21.023H63.912A10.434,10.434,0,0,0,53.4,75.812,10.59,10.59,0,0,0,63.912,86.323Z" transform="translate(-53.4 -65.056)" fill="#fff"/>
                <path id="路径_8797" data-name="路径 8797" d="M63.912,114.023H221.83a10.512,10.512,0,0,0,0-21.023H63.912A10.434,10.434,0,0,0,53.4,103.512,10.755,10.755,0,0,0,63.912,114.023Z" transform="translate(-53.4 -25.041)" fill="#fff"/>
                <path id="路径_8798" data-name="路径 8798" d="M63.912,141.623H336.725a10.512,10.512,0,1,0,0-21.023H63.912A10.434,10.434,0,0,0,53.4,131.112,10.59,10.59,0,0,0,63.912,141.623Z" transform="translate(-53.4 14.829)" fill="#fff"/>
                <path id="路径_8799" data-name="路径 8799" d="M336.725,149.1H63.912a10.512,10.512,0,1,0,0,21.023H336.725a10.434,10.434,0,0,0,10.512-10.512A10.59,10.59,0,0,0,336.725,149.1Z" transform="translate(-53.4 55.999)" fill="#fff"/>
                <path id="路径_8800" data-name="路径 8800" d="M336.725,176.7H63.912a10.512,10.512,0,0,0,0,21.023H336.725a10.434,10.434,0,0,0,10.512-10.512A10.59,10.59,0,0,0,336.725,176.7Z" transform="translate(-53.4 95.869)" fill="#fff"/>
                <path id="路径_8801" data-name="路径 8801" d="M153.356,152.715h45.958a13.042,13.042,0,0,0,12.956-12.956v-61.6A13.042,13.042,0,0,0,199.314,65.2H153.356A13.042,13.042,0,0,0,140.4,78.156v61.6A13.042,13.042,0,0,0,153.356,152.715Z" transform="translate(72.277 -65.2)" fill="#fff"/>
              </g>
              <g id="组_7639" data-name="组 7639" transform="translate(144.271 31.035)">
                <g id="Head_5_" transform="translate(216.315 56.688)">
                  <g id="组_7636" data-name="组 7636" transform="translate(0 0)">
                    <path id="路径_8802" data-name="路径 8802" d="M205.247,123.341c7.037-8,11.515-18.232,10.875-29.427-2.239-32.305-47.018-25.268-55.654-8.956s-7.676,57.574,3.518,60.452c4.478,1.279,14.074-1.6,23.989-7.676l-6.077,43.5h36.143Z" transform="translate(-154.695 -71.198)" fill="url(#linear-gradient-2)"/>
                  </g>
                </g>
                <path id="hair_5_" d="M231.511,136.372c4.8-.96,17.592-1.279,19.831-1.279,1.6,0,3.2.32,3.838-.96a10.165,10.165,0,0,0,.64-4.158c.32-1.6.64-3.2.96-4.478a43.767,43.767,0,0,1,4.8-12.154A36.317,36.317,0,0,1,279.489,97.35c8.316-3.518,17.911-4.478,26.867-3.838,9.6.96,18.552,3.838,27.508,7.037a59.013,59.013,0,0,0,26.867,2.559c9.276-1.279,15.993-6.4,23.989-11.195s16.952-8,26.228-7.357c8.955.64,16.632,4.158,23.989,9.276,6.717,4.478,12.154,9.915,15.673,17.592,3.519,8.316,3.519,17.272-2.239,24.629-8,10.555-23.029,13.434-35.5,12.794a77,77,0,0,1-21.11-3.838c-9.275-3.2-16.952-8.636-25.268-13.114a72.737,72.737,0,0,0-12.474-5.118c-4.158-1.279-8.316-1.6-12.154.96a46.309,46.309,0,0,1-12.155,7.037,41.771,41.771,0,0,1-13.754,2.559c-9.276,0-18.232-2.879-26.868-4.8-7.356-1.6-15.033-3.2-22.39-1.6-3.2.64-7.676,1.919-8.636,5.118,18.552,3.519,26.228,26.548,20.791,43.82-2.879,9.276-20.151,20.151-26.548,15.353-4.158-3.2-1.6-7.037,0-9.6,3.2-5.118,4.158-11.515-1.6-15.353-5.118-3.2-10.235,4.158-10.555,4.158-1.279-.32-13.434-7.037-21.75-16.952-8,.64-9.276-5.118-7.357-9.276C212.64,143.089,224.795,137.332,231.511,136.372Z" transform="translate(11.046 -84.475)" fill="#212a71"/>
                <path id="Skin_8_" d="M177.552,387.8c19.191-42.86,33.265-79.963,38.7-99.794,9.6-33.585,16.952-63.331,18.551-74.206,4.158-26.548-33.584-27.827-38.7-14.713-7.677,19.831-20.791,85.081-37.1,183.276ZM400.489,253.465c-17.592-7.037-79.324-29.107-109.39-35.184-8.636-1.6-16.952-3.518-24.629-5.118-23.029-4.478-35.183,37.743-12.794,40.621,55.654,8,134.658,16.313,141.375,17.272C404.647,272.976,411.684,257.943,400.489,253.465Z" transform="translate(-101.637 149.631)" fill="#ff4e86"/>
                <path id="Leg-Back_2_" d="M250.638,235.293l95.636-48.938V175.8H334.76c-92.437,23.669-139.456,38.7-141.695,45.419v.32l-.32.32C174.513,247.127,163.638,370.59,159.8,379.866l35.184,5.118c13.434-49.9,56.294-84.761,55.335-144.573A29.262,29.262,0,0,0,250.638,235.293Z" transform="translate(-99.879 116.307)" fill="#0078e5"/>
                <path id="Leg-Front_2_" d="M314,264.179c8.956-1.6,16.632-3.2,23.669-4.478,44.459-7.676,57.574-31.665,49.577-83.8H305.36c-13.434,3.838-82.842,33.265-118.985,48.618-23.989,10.235-16.312,47.338-2.878,57.254a1.662,1.662,0,0,0,.64,1.28c72.607,30.066,130.5,14.393,149.691,19.511l8.956-28.147Z" transform="translate(-75.596 116.527)" fill="#1b90fb"/>
                <g id="Accessories_x2F_Shoe_x2F_Flat-Sneaker_3_" transform="translate(305.356 392.458) rotate(64)">
                  <g id="组_7637" data-name="组 7637" transform="translate(0 0)">
                    <path id="shoe_6_" d="M.309,14.074a32.086,32.086,0,0,1,6.4-8A49.943,49.943,0,0,1,16.941,0C18.86,2.559,36.132,24.629,69.4,66.849c-4.158,6.077-8.316,7.676-11.835,4.158s-6.077-6.077-8.636-8.316L10.864,42.221a1.538,1.538,0,0,1-.64-1.919h0l3.2-5.757A25.908,25.908,0,0,0,9.265,24.309q-1.919-2.4-7.676-5.757h0A2.781,2.781,0,0,1,.309,14.713C.309,14.393.309,14.074.309,14.074Z" transform="translate(0 0)" fill="#212a71"/>
                  </g>
                </g>
                <g id="Accessories_x2F_Shoe_x2F_Flat-Sneaker_1_" transform="translate(0 520.676)">
                  <g id="组_7638" data-name="组 7638" transform="translate(0 0)">
                    <path id="shoe_4_" d="M-37.384,124.342c1.6,4.478,2.559,8,2.559,10.235,0,2.879-.64,6.717-1.279,11.835h-84.761c-2.239-7.357-.959-11.195,3.838-11.835s8.636-.959,11.835-1.6l39.342-17.592a1.538,1.538,0,0,1,1.919.64h0l2.559,6.077c4.158,1.919,8,3.2,10.555,3.2,2.239,0,5.437-.96,9.276-2.879h0c1.6-.64,3.2,0,4.158,1.919Z" transform="translate(121.934 -115.261)" fill="#212a71"/>
                  </g>
                </g>
                <path id="Skin_5_" d="M248.378,194.647,194,170.658c-9.6-9.6-18.551-16.632-27.507-21.75-2.559-.96-7.357-.96-2.559,6.077s9.6,14.713,7.676,17.272-7.676-.32-9.6,3.838c-1.6,2.879,8,5.757,28.467,9.6l40.621,31.346Zm220.059,6.717-30.706,6.077c31.026,57.893,47.338,88.6,49.577,92.118,5.118,7.676.32,22.07-1.279,29.746,10.875,2.559,6.717-14.074,20.471-10.555,12.474,3.2,23.349,11.195,35.184.32,1.279-1.279,2.559-5.437-2.559-7.677-12.154-5.437-30.386-15.353-33.265-19.191C501.7,286.765,489.228,256.378,468.437,201.364Z" transform="translate(-95.38 56.199)" fill="url(#linear-gradient-2)"/>
                <path id="Coat-Back_6_" d="M327.649,130.339,314.855,128.1C286.388,155.607,274.874,221.817,256,230.773c-17.912,8.316-42.86.32-72.926-10.556L173.8,240.688c27.188,29.746,85.4,54.7,109.07,40.3C320.293,258.28,329.248,176.718,327.649,130.339Z" transform="translate(-69.099 11.437)" fill="url(#linear-gradient-4)"/>
                <path id="Shirt_5_" d="M321.3,298.161H206.474c-5.118,0-4.158-7.676-3.518-11.515,8.956-44.459,42.86-92.117,42.86-155.128l33.265-5.118C306.588,170.54,315.864,224.914,321.3,298.161Z" transform="translate(-6.137 7.7)" fill="#fff"/>
                <path id="路径_8803" data-name="路径 8803" d="M391.984,345.453Q372.794,226.947,295.069,159.3c9.6-18.232,6.717-29.106-2.879-33.584-9.915-4.478-19.191,1.919-35.184.32a6.88,6.88,0,0,0-2.559,0l-8-.32c-.64,1.919-2.239,5.757-2.239,5.757q-44.62,153.05-24.629,203.746H322.9c-1.6-24.948-7.037-51.176-14.073-76.764,23.349,42.54,43.18,72.926,59.173,91.8Z" transform="translate(17.856 2.629)" fill="url(#linear-gradient-5)"/>
              </g>
            </g>
          </g>
        </g>
      </g>
    </g>
  </g>
</svg>
