<svg class="icon" viewBox="0 0 1052 1024" xmlns="http://www.w3.org/2000/svg" width="200" height="200"><path d="M979.712 521.248a27.52 27.52 0 00-20.032-8.32 28.8 28.8 0 00-20.032 8.32l-51.2 51.2 107.936 107.808 48.16-54.4a27.872 27.872 0 008.32-19.936 28.448 28.448 0 00-8.32-19.936zM626.784 407.136h-311.52a61.696 61.696 0 110-123.392h311.52a61.696 61.696 0 110 123.392zM501.568 655.392H315.264a61.696 61.696 0 110-123.392h186.304a61.696 61.696 0 110 123.392zM768.8 0H198.88A150.048 150.048 0 0048.8 149.952v724.096A150.048 150.048 0 00198.88 1024h207.296V889.6L919.2 365.376V150.08A150.176 150.176 0 00768.8 0zM541.6 916.192V1024h108.192L962.4 708.384 854.464 600.32z" fill="#508CFF"/></svg>