<svg xmlns="http://www.w3.org/2000/svg" width="88" height="88"><g transform="translate(-32 -488)"><rect width="88" height="88" rx="8" transform="translate(32 488)" fill="#edf6fe"/><path d="M77.759 514.685l17.757 16.28a1.489 1.489 0 01-1.005 2.588h-1.757v13.032a3.723 3.723 0 01-3.723 3.723H62.966a3.723 3.723 0 01-3.723-3.723v-13.037h-1.756a1.489 1.489 0 01-1.005-2.586l17.755-16.277a2.606 2.606 0 013.522 0zm-6.609 21.28a1.523 1.523 0 00-2.148.155l-.277.348a5.665 5.665 0 00-1.1 3.362v2.037a2.1 2.1 0 002.086 2.098h12.57a2.1 2.1 0 002.094-2.094v-2.037a5.649 5.649 0 00-1.273-3.578l-.084-.095-.089-.089a1.677 1.677 0 00-2.372.117l-.1.114q-.114.13-.24.248a6.705 6.705 0 01-9.063-.581zm4.848-9.671a5.027 5.027 0 00-5.027 5.027v.014a5.027 5.027 0 0010.053 0v-.014a5.027 5.027 0 00-5.026-5.023z" fill="#508cff"/><path d="M71.15 535.965a1.523 1.523 0 00-2.148.155l-.277.348a5.665 5.665 0 00-1.1 3.362v2.037a2.1 2.1 0 002.086 2.098h12.57a2.1 2.1 0 002.094-2.094v-2.037a5.649 5.649 0 00-1.273-3.578l-.084-.095-.089-.089a1.677 1.677 0 00-2.372.117l-.1.114q-.114.13-.24.248a6.705 6.705 0 01-9.063-.581zm4.848-9.671a5.027 5.027 0 00-5.027 5.027v.014a5.027 5.027 0 0010.053 0v-.014a5.027 5.027 0 00-5.026-5.023z" fill="#fff"/></g></svg>