<svg xmlns="http://www.w3.org/2000/svg" xmlns:xlink="http://www.w3.org/1999/xlink" width="750" height="750" viewBox="0 0 750 750">
  <defs>
    <linearGradient id="linear-gradient" x1="0.5" x2="0.5" y2="1" gradientUnits="objectBoundingBox">
      <stop offset="0" stop-color="#ffd7c2"/>
      <stop offset="1" stop-color="#ffa5a5"/>
    </linearGradient>
    <clipPath id="clip-金刚区卡片默认icon_5">
      <rect width="750" height="750"/>
    </clipPath>
  </defs>
  <g id="金刚区卡片默认icon_5" data-name="金刚区卡片默认icon – 5" clip-path="url(#clip-金刚区卡片默认icon_5)">
    <g id="组_8679" data-name="组 8679" transform="translate(-231 -995)">
      <rect id="矩形_969" data-name="矩形 969" width="750" height="750" transform="translate(231 995)" fill="none"/>
    </g>
    <g id="组_8685" data-name="组 8685" transform="translate(-4171 -13006)">
      <rect id="矩形_2031" data-name="矩形 2031" width="750" height="750" transform="translate(4171 13006)" fill="none"/>
      <g id="Drawing_Illustration" data-name="Drawing Illustration" transform="translate(4171 13051.906)">
        <g id="Group" transform="translate(40.457 0)" opacity="0.53">
          <g id="Clipped" transform="translate(0 0)">
            <g id="组_8595" data-name="组 8595">
              <g id="Group_2">
                <path id="Path_2" d="M979.727,291.7,895.563,736.959c-2.365,12.508-14.577,21.035-27.744,19.37L355.246,691.538c-11.514-1.454-20.445-10.34-21.519-21.408l-30-309.228c-1.248-12.86,8.442-24.327,21.842-25.851l626.741-71.243C968.918,261.921,982.707,275.948,979.727,291.7Z" transform="translate(-303.616 -201.949)" fill="#fff" opacity="0.22"/>
                <rect id="Rectangle" width="75.056" height="621.436" rx="12" transform="translate(573.535 634.801) rotate(180)" fill="none" stroke="#fff" stroke-width="2"/>
                <rect id="Rectangle_2" width="75.056" height="621.436" rx="12" transform="translate(419.931 621.436) rotate(180)" fill="none" stroke="#fff" stroke-width="2"/>
                <rect id="Rectangle_3" width="75.056" height="621.436" rx="12" transform="translate(259.347 624.777) rotate(180)" fill="none" stroke="#fff" stroke-width="2"/>
                <rect id="Rectangle_4" width="75.056" height="621.436" rx="12" transform="translate(107.489 628.119) rotate(180)" fill="none" stroke="#fff" stroke-width="2"/>
              </g>
            </g>
          </g>
        </g>
        <g id="Human_2" data-name="Human 2" transform="translate(278.863 195.109)">
          <rect id="Rectangle_5" width="199.834" height="178.576" rx="12" transform="translate(347.25 221.725) rotate(180)" fill="#a2a2c5"/>
          <rect id="Rectangle_6" width="167.155" height="178.576" rx="12" transform="translate(314.571 221.725) rotate(180)" fill="#dcdcf1"/>
          <rect id="Rectangle_7" width="188.621" height="230.112" rx="12" transform="translate(222.461 414.895) rotate(180)" fill="#a2a2c5"/>
          <rect id="Rectangle_8" width="144.344" height="229.018" rx="12" transform="translate(372.221 415.298) rotate(180)" fill="#8f8fb9"/>
          <rect id="Rectangle_9" width="44.62" height="206.987" rx="12" transform="translate(68.169 413.349) rotate(180)" fill="#dcdcf1"/>
          <rect id="Rectangle_10" width="172.043" height="94.141" rx="12" transform="translate(224.177 355.12) rotate(180)" fill="#dcdcf1"/>
          <path id="Oval" d="M570,713.92a34.7,34.7,0,1,0-34.7-34.7A34.705,34.705,0,0,0,570,713.92Z" transform="translate(-535.295 -459.84)" fill="#dcdcf1"/>
          <path id="Path_3" d="M647.024,596.879l-17.957-14.964-76.817-6.983,31.924,33.919,74.821,4.988Z" transform="translate(-538.04 -448.577)" fill="#8f8fb9"/>
          <g id="Human" transform="translate(15.432 0)">
            <path id="Path_4" d="M634.76,883.324l-3.177,20.183H621.4l-.031-17.9Z" transform="translate(-564.659 -498.496)" fill="#fcbb9d"/>
            <path id="Path_5" d="M673.727,652.122s-58.453,46.967-63.6,82.047c-2.824,19.26,9.156,115.856,9.156,115.856h13.053s14.814-103.3,23.273-114.644c9.87-13.233,46.209-25.768,66.655-46.008,10.8-10.69,13.517-37.252,13.517-37.252Z" transform="translate(-562.771 -461.071)" fill="#0b224e"/>
            <path id="Path_6" d="M631.652,915.147l-1.734-9.027H619.673c-3.566,0-6.921,2.224-9.047,5.995-.707,1.258-.027,3.031,1.157,3.031Z" transform="translate(-562.874 -502.186)" fill="#5f2882"/>
            <path id="Path_7" d="M701.83,883.324l-3.177,20.183H688.466l-.031-17.9Z" transform="translate(-575.515 -498.496)" fill="#fcbb9d"/>
            <path id="Path_8" d="M740.721,652.122s-58.378,46.967-63.521,82.047c-2.824,19.26,9.155,115.856,9.155,115.856h13.053s14.814-103.3,23.272-114.644c10.075-13.508,45.466-19.839,67.237-38.513,14.891-12.772,12.935-44.747,12.935-44.747Z" transform="translate(-573.627 -461.071)" fill="#0b224e"/>
            <path id="Path_9" d="M698.721,915.147l-1.732-9.027H686.741c-3.565,0-6.921,2.224-9.047,5.995-.707,1.258-.027,3.031,1.157,3.031Z" transform="translate(-573.73 -502.186)" fill="#5f2882"/>
            <path id="Path_10" d="M788.087,652.122s1.819,30.819-18.367,41.159c-8.451,4.33-50.5,27.193-54.5,41.174-11.837,41.425-16.835,115.57-16.835,115.57" transform="translate(-577.127 -461.071)" fill="none" stroke="#fff" stroke-linecap="round" stroke-linejoin="round" stroke-width="1" stroke-dasharray="7"/>
            <path id="Path_11" d="M637.6,564.746c19.428.042,38.37-10.15,54.076-21.456,8.91-6.412,16.779-13.184,23.1-18.649,6.244-5.4,8.917-13.77,4.928-20.995a16.077,16.077,0,0,0-23.375-5.347c-7.342,5.213-15.438,11.574-23.569,17.584-13.41,9.923-26.9,18.9-37.222,20.215-32.494,4.14-75.029-14.458-76.856-8.39C555.831,537.163,611.284,564.687,637.6,564.746Z" transform="translate(-554.495 -435.693)" fill="url(#linear-gradient)"/>
            <path id="Path_12" d="M694.813,515.883,713.73,543.29c8.909-6.412,16.779-13.184,23.1-18.649,6.243-5.4,8.917-13.77,4.928-20.995a16.077,16.077,0,0,0-23.376-5.347C711.04,503.512,702.943,509.874,694.813,515.883Z" transform="translate(-576.548 -435.693)" fill="#5cc2ad"/>
            <path id="Path_13" d="M574.293,535.989a19.969,19.969,0,0,0-12.362-7.219c-7.993-1.184-15.968,6.243,6.171,15.1S574.293,535.989,574.293,535.989Z" transform="translate(-553.707 -441.085)" fill="#fcbb9d"/>
            <path id="Path_14" d="M804.289,626.061h-118.2c4.167-39.176,7.115-77.764,17.1-109.523a36.379,36.379,0,0,1,34.728-25.415H761.8A36.488,36.488,0,0,1,797.6,520.829C803.991,554.248,803.482,589.38,804.289,626.061Z" transform="translate(-575.136 -435.011)" fill="#36a4b7"/>
            <path id="Path_15" d="M798.77,531.671s-15.88,49.229-27.79,64.315-82.842,21.527-82.842,21.527l1.941-19.586,53.111-21.791,30.966-37.316Z" transform="translate(-575.468 -441.574)" fill="#1b1b1d" opacity="0.39"/>
            <path id="Path_16" d="M650.082,586.3c1.022,9.823,63.438,12.832,87.735,2.724,17.266-7.183,30.215-22.579,40.021-38.177a314.306,314.306,0,0,0,15.053-27.65c3.671-7.384,2.908-16.142-3.562-21.264a16.08,16.08,0,0,0-23.628,4.09c-4.316,6.923-9.7,15.413-15.186,23.769-10.552,16.067-21.549,31.623-26.293,34.573C696.4,581.652,649.425,579.993,650.082,586.3Z" transform="translate(-569.306 -436.198)" fill="url(#linear-gradient)"/>
            <path id="Path_17" d="M665.512,598.412a19.971,19.971,0,0,0-14.191-1.886c-7.83,1.993-12.321,11.924,11.522,11.548S665.512,598.412,665.512,598.412Z" transform="translate(-568.494 -451.984)" fill="#fcbb9d"/>
            <path id="Path_18" d="M748.883,459.851v33.7a9.157,9.157,0,1,0,18.314,0v-33.7Z" transform="translate(-585.3 -429.949)" fill="#fcbb9d"/>
            <path id="Path_19" d="M769.913,529.789l27.323,21.054a314.127,314.127,0,0,0,15.053-27.65c3.671-7.384,2.909-16.142-3.561-21.264a16.08,16.08,0,0,0-23.628,4.09C780.784,512.943,775.4,521.433,769.913,529.789Z" transform="translate(-588.704 -436.198)" fill="#5cc2ad"/>
            <path id="Path_20" d="M748.883,461.728V482.6s12.647,2.85,18.314-9.454V459.851H756.871Z" transform="translate(-585.3 -429.949)" fill="#b98a80"/>
            <path id="Path_21" d="M724.34,424.174l6.11,12.061.284.562v17.71A14.094,14.094,0,0,0,744.824,468.6h4.317a14.093,14.093,0,0,0,14.089-14.089V424.174Z" transform="translate(-581.327 -424.174)" fill="url(#linear-gradient)"/>
            <path id="Oval_2" d="M770.183,464.173a5.358,5.358,0,1,0-5.357-5.358A5.358,5.358,0,0,0,770.183,464.173Z" transform="translate(-587.881 -428.914)" fill="#fcbb9d"/>
            <path id="Path_22" d="M724.34,424.174h38.889v12.061h-.008v11.223a2.472,2.472,0,1,1-4.945,0V440.73h-1.2a2.654,2.654,0,0,1-2.514-1.911,3.493,3.493,0,0,0-3.647-2.583H730.45Z" transform="translate(-581.327 -424.174)" fill="#4f216c"/>
            <path id="Path_23" d="M737.646,459.514l10.719.131s1.985,8.646-5.778,8.25C736.369,467.577,737.646,459.514,737.646,459.514Z" transform="translate(-583.464 -429.895)" fill="#fff"/>
            <path id="Path_24" d="M704.247,690.723s-31.365,24.53-39.768,50.907l13.3-10.854S688.542,705.545,704.247,690.723Z" transform="translate(-571.638 -467.32)" fill="#1b1b1d" opacity="0.39"/>
            <path id="Path_25" d="M707.754,506.934s-10.057,14.821-15.88,27-9,27.705-9,27.705l11.469-5.471S699.814,517.52,707.754,506.934Z" transform="translate(-574.615 -437.57)" fill="#1b1b1d" opacity="0.39"/>
          </g>
          <path id="Path_26" d="M559.792,510.445l5.807,40.431,1.788.893,1.34-1.34-6.478-40.655Z" transform="translate(-539.261 -438.03)" fill="#8f8fb9"/>
          <path id="Oval_3" d="M569.851,697.193A18.251,18.251,0,1,0,551.6,678.941,18.251,18.251,0,0,0,569.851,697.193Z" transform="translate(-537.934 -462.458)" fill="#a2a2c5" opacity="0.38"/>
          <rect id="Rectangle_11" width="44.62" height="206.987" rx="12" transform="translate(207.684 207.42)" fill="#dcdcf1"/>
          <path id="Oval_4" d="M816.314,715.183a34.7,34.7,0,1,0-34.7-34.7A34.705,34.705,0,0,0,816.314,715.183Z" transform="translate(-575.166 -460.044)" fill="#dcdcf1"/>
          <path id="Oval_5" d="M815.7,700.695a18.251,18.251,0,1,0-18.251-18.251A18.25,18.25,0,0,0,815.7,700.695Z" transform="translate(-577.73 -463.025)" fill="#a2a2c5" opacity="0.38"/>
          <path id="Oval_6" d="M587.47,596.65a2.912,2.912,0,1,0-2.912-2.912A2.911,2.911,0,0,0,587.47,596.65Z" transform="translate(-543.269 -451.15)" fill="#1b1b1d" opacity="0.39"/>
        </g>
        <g id="Human_1" data-name="Human 1" transform="translate(96.45 259.721)">
          <path id="Path_27" d="M467.438,539.6l7.844-17.3,27.756,9.453L486.143,574.6l-29.164-11.063Z" transform="translate(-360.425 -425.014)" fill="#8f8fb9"/>
          <path id="Path_28" d="M401.524,886.583l-.673,15.338h7.741l3.11-13.6Z" transform="translate(-340.046 -557.28)" fill="#fcbb9d"/>
          <path id="Path_29" d="M424.259,689.415c-.331,3.63-1,8.031-1.911,12.917-5.241,28.165-18.458,72.6-20.986,81.022-.281.911-.427,1.4-.427,1.4h-9.917s.051-.987.147-2.771q.009-.172.019-.363c.783-15.082,4.013-80.118,2.433-95.187-.325-3.114-1.115-7.586-2.2-12.884-3.433-16.751-9.885-41.794-14.324-58.508l-.025-.089c-.191-.732-.376-1.439-.567-2.133-2.433-9.159-4.134-15.318-4.134-15.318h47.164s4.012,36.362,5.019,65.934A225.358,225.358,0,0,1,424.259,689.415Z" transform="translate(-329.703 -452.318)" fill="#102b5e"/>
          <path id="Path_30" d="M397.745,916.24l1.316-6.86h7.787c2.71,0,5.26,1.69,6.879,4.556.537.956.021,2.3-.88,2.3Z" transform="translate(-338.918 -565.556)" fill="#5f2882"/>
          <path id="Path_31" d="M443.256,493.459c-14.764.032-29.158-7.713-41.094-16.305-6.771-4.872-12.751-10.018-17.554-14.171-4.745-4.1-6.777-10.465-3.745-15.955a12.219,12.219,0,0,1,17.764-4.063c5.579,3.962,11.732,8.8,17.91,13.362,10.19,7.541,20.445,14.362,28.285,15.363,24.693,3.146,57.016-10.987,58.4-6.376C505.393,472.5,463.255,493.414,443.256,493.459Z" transform="translate(-332.269 -395.391)" fill="#fcbb9d"/>
          <path id="Path_32" d="M416.538,456.326l-14.375,20.827c-6.771-4.872-12.751-10.018-17.554-14.171-4.745-4.1-6.777-10.465-3.745-15.955a12.219,12.219,0,0,1,17.764-4.063C404.207,446.925,410.359,451.759,416.538,456.326Z" transform="translate(-332.269 -395.391)" fill="#cd5f5f"/>
          <path id="Path_33" d="M353.609,886.328l-2.08,15.606H344.7l-2.29-15.606Z" transform="translate(-318.827 -557.187)" fill="#fcbb9d"/>
          <path id="Path_34" d="M551.826,479.6a15.18,15.18,0,0,1,9.395-5.486c6.074-.9,12.134,4.745-4.689,11.476S551.826,479.6,551.826,479.6Z" transform="translate(-393.33 -407.485)" fill="#fcbb9d"/>
          <path id="Path_35" d="M352.546,597.5s-.134,5.726-.344,14.5c-.013.2-.013.395-.019.592,0,.076-.006.153-.006.229-.414,16.8-1.115,44.011-1.758,64.01-.172,5.413-.338,10.293-.5,14.3-.242,6.07-.9,14.286-1.783,23.343-2.943,30.406-8.318,70.283-8.318,70.283H329.363s-.083-.783-.236-2.216c-.032-.324-.07-.682-.115-1.077-1.637-15.438-8.509-80.6-9.8-96.753C317.675,665.6,305.383,597.5,305.383,597.5Z" transform="translate(-305.383 -452.318)" fill="#0b224e"/>
          <path id="Path_36" d="M395.207,539.043H305.383c.618-27.878.229-54.577,5.083-79.971A27.727,27.727,0,0,1,337.674,436.5H355.82c.65,0,1.3.025,1.942.07a2.693,2.693,0,0,1,.319.031,27.609,27.609,0,0,1,24.133,19.21C389.8,479.945,392.042,509.269,395.207,539.043Z" transform="translate(-305.383 -393.861)" fill="#ea7e7b"/>
          <path id="Path_37" d="M376.9,436.946v7.038a7.665,7.665,0,0,1-7.643,7.643h-4.42a7.665,7.665,0,0,1-7.643-7.643v-7.038c0-.153.007-.3.013-.446h17.426c.65,0,1.3.025,1.943.07a2.675,2.675,0,0,1,.318.031C376.9,436.718,376.9,436.832,376.9,436.946Z" transform="translate(-324.194 -393.861)" fill="#cd5f5f"/>
          <path id="Path_38" d="M424.339,518.794c-.777,7.465-48.208,9.751-66.673,2.07-13.12-5.458-22.961-17.158-30.413-29.011a238.77,238.77,0,0,1-11.439-21.012c-2.79-5.611-2.211-12.267,2.707-16.158a12.219,12.219,0,0,1,17.955,3.108c3.28,5.261,7.369,11.713,11.541,18.063,8.019,12.21,16.375,24.031,19.98,26.273C389.137,515.265,424.836,514,424.339,518.794Z" transform="translate(-308.565 -399.504)" fill="#fcbb9d"/>
          <path id="Path_39" d="M464.021,551.414a15.176,15.176,0,0,1,10.784-1.433c5.95,1.514,9.363,9.061-8.756,8.775S464.021,551.414,464.021,551.414Z" transform="translate(-360.591 -434.914)" fill="#fcbb9d"/>
          <path id="Path_40" d="M375.686,405.227v25.61a6.958,6.958,0,1,1-13.916,0v-25.61Z" transform="translate(-325.856 -382.507)" fill="#fcbb9d"/>
          <path id="Path_41" d="M342.409,916.24l1.317-6.86h7.786c2.71,0,5.26,1.69,6.876,4.556.537.956.021,2.3-.88,2.3Z" transform="translate(-318.827 -565.556)" fill="#5f2882"/>
          <path id="Path_42" d="M348.018,475.853l-20.764,16a238.77,238.77,0,0,1-11.439-21.012c-2.79-5.611-2.211-12.267,2.707-16.158a12.219,12.219,0,0,1,17.955,3.108C339.757,463.051,343.846,469.5,348.018,475.853Z" transform="translate(-308.565 -399.504)" fill="#cd5f5f"/>
          <path id="Path_43" d="M328.366,597.5s13.121,89.9,13.121,187.258" transform="translate(-313.727 -452.318)" fill="none" stroke="#fff" stroke-linecap="round" stroke-linejoin="round" stroke-width="1" stroke-dasharray="7"/>
          <path id="Path_44" d="M375.686,406.654v15.859s-9.611,2.166-13.916-7.184v-10.1h7.847Z" transform="translate(-325.856 -382.507)" fill="#b98a80"/>
          <path id="Path_45" d="M375.752,403.306h-3.283a10.7,10.7,0,0,1-10.7-10.7V369.554h29.549l-4.859,9.588V392.6a10.7,10.7,0,0,1-10.7,10.7Z" transform="translate(-325.855 -369.554)" fill="url(#linear-gradient)"/>
          <path id="Oval_7" d="M358.964,406.976a4.071,4.071,0,1,0-4.071-4.071A4.071,4.071,0,0,0,358.964,406.976Z" transform="translate(-323.359 -380.185)" fill="#fcbb9d"/>
          <path id="Path_46" d="M391.316,369.554H361.763v9.165h.007v8.528a1.879,1.879,0,0,0,3.758,0v-5.113h.912a2.02,2.02,0,0,0,1.911-1.452,2.652,2.652,0,0,1,2.77-1.963h15.553Z" transform="translate(-325.854 -369.554)" fill="#b14949"/>
          <path id="Path_47" d="M368.773,721.246c-.172,5.414-.338,10.293-.5,14.3-.242,6.069-.9,14.286-1.783,23.343a4.591,4.591,0,0,1-1.21.165c-5.165,0-9.35-8.783-9.35-19.611s4.184-19.611,9.35-19.611A5.391,5.391,0,0,1,368.773,721.246Z" transform="translate(-323.737 -496.734)" fill="#fff" opacity="0.32"/>
          <path id="Path_48" d="M448.32,726.976c-.331,3.63-1,8.031-1.911,12.917-4.414-1.567-7.777-9.63-7.777-19.33,0-10.834,4.184-19.611,9.35-19.611a4.013,4.013,0,0,1,.624.045A225.353,225.353,0,0,1,448.32,726.976Z" transform="translate(-353.764 -489.879)" fill="#fff" opacity="0.32"/>
          <path id="Path_49" d="M354.9,489.428l-15.1,24.793-6.7-9.386Z" transform="translate(-315.442 -413.078)" fill="#e7a58a"/>
          <path id="Path_50" d="M434.376,465.227l9.2,33.905-10.191-4.291-4.827-21.991Z" transform="translate(-350.107 -404.291)" fill="#e7a58a"/>
          <path id="Path_51" d="M381.348,405.088l6.738-.1s.4,5.129-3.319,5.531S381.348,405.088,381.348,405.088Z" transform="translate(-332.962 -382.419)" fill="#fff"/>
          <path id="Path_52" d="M327.509,494.8l3.553,6.436,21.807-15.407-4.443-6.315Z" transform="translate(-313.417 -409.478)" fill="#b14949"/>
          <path id="Path_53" d="M433.45,463.535l-5.815,7.624-1.622-6.608,3.533-3.985Z" transform="translate(-349.182 -402.599)" fill="#b14949"/>
          <path id="Path_54" d="M378.667,617.26l13.275-5.431,1.81,68.787Z" transform="translate(-331.991 -457.52)" fill="#1b1b1d" opacity="0.39"/>
          <path id="Path_55" d="M398.211,530.253l-3.755,2.682.268-5.632Z" transform="translate(-337.724 -426.83)" fill="#c86336" opacity="0.43"/>
          <path id="Path_56" d="M479.172,488.605l-2.992,6.207-2.145-7.508Z" transform="translate(-366.618 -412.307)" fill="#c86336" opacity="0.43"/>
          <path id="Oval_8" d="M501.75,545.792a1.911,1.911,0,1,0-1.911-1.911A1.911,1.911,0,0,0,501.75,545.792Z" transform="translate(-375.987 -432.155)" fill="#1b1b1d" opacity="0.39"/>
          <path id="Path_57" d="M541.932,478.436l30.716,4.475,1.036-1.11L573,480.535,541.973,476.5Z" transform="translate(-391.27 -408.385)" fill="#8f8fb9"/>
        </g>
        <g id="Table_2" transform="translate(38.178 399.274)">
          <path id="Path_69" d="M337.94,858.672l-3.55.024c-1.621.01-2.91-2-2.893-4.5L333,655.331l12.867-.082-4.9,198.9C340.906,856.65,339.558,858.662,337.94,858.672Z" transform="translate(-304.636 -647.563)" fill="#fcaa71"/>
          <path id="Path_70" d="M427.944,857.555l-3.549.024c-1.622.01-2.91-2-2.894-4.5L423,654.215l12.868-.083-4.9,198.9C430.909,855.533,429.561,857.546,427.944,857.555Z" transform="translate(-315.286 -647.431)" fill="#fcaa71"/>
          <path id="Path_71" d="M816.336,854.554l-3.549.024c-1.622.011-2.909-2.007-2.893-4.523L811.4,650.146l12.872-.083-4.906,199.946C819.3,852.519,817.955,854.544,816.336,854.554Z" transform="translate(-361.245 -646.95)" fill="#fcaa71"/>
          <path id="Path_72" d="M906.341,853.612l-3.55.023c-1.623.011-2.909-1.991-2.892-4.49L901.4,650.7l12.867-.082L909.371,849.1C909.306,851.593,907.958,853.6,906.341,853.612Z" transform="translate(-371.896 -647.016)" fill="#fcaa71"/>
          <rect id="Rectangle_18" width="573.475" height="17.595" transform="translate(0 0.371)" fill="#dcdcf1"/>
          <rect id="Rectangle_19" width="153.969" height="17.595" transform="translate(419.673)" fill="#afafd5"/>
          <path id="Path_73" d="M345.437,666.854,333.558,681.7l-.371-14.847Z" transform="translate(-304.836 -648.937)" fill="#dc905e"/>
          <path id="Path_74" d="M434.75,666.854l-11.879,12.823V666.854Z" transform="translate(-315.449 -648.937)" fill="#dc905e"/>
          <path id="Path_75" d="M824.068,666.809,812.1,678.45l-.279-11.978Z" transform="translate(-361.473 -648.892)" fill="#dc905e"/>
          <path id="Path_76" d="M913.715,667.214,901.186,679.7V667.046Z" transform="translate(-372.049 -648.96)" fill="#dc905e"/>
        </g>
        <g id="Plant" transform="translate(183.33 422.189)">
          <g id="Group_12" transform="translate(0 0)">
            <path id="Path_77" d="M506.607,810.7s3.859-38.6-2.456-62.114-36.5-42.814-36.5-42.814,22.109,20.354,28.425,47.025,4.562,59.308,4.562,59.308Z" transform="translate(-465.9 -705.774)" fill="#5cc2ad"/>
            <path id="Path_78" d="M511.826,815.424S509.72,749.1,528.671,730.85c0,0-9.826,30.531-10.879,54.047s-1.4,31.584-1.4,31.584Z" transform="translate(-471.118 -708.742)" fill="#1a7a83"/>
            <path id="Path_79" d="M520.287,819.8s-5.265-37.2,14.037-57.9c0,0-15.441,15.089-19.3,35.444s-2.807,24.214-2.807,24.214Z" transform="translate(-471.157 -712.415)" fill="#5cc2ad"/>
            <path id="Path_80" d="M503.213,820s2.105-22.108-8.072-42.813-29.478-22.46-29.478-22.46,22.811,12.283,26.319,30.53a196.857,196.857,0,0,1,3.509,33.339Z" transform="translate(-465.664 -711.567)" fill="#1a7a83"/>
            <path id="Path_81" d="M524.379,825.63s-1.053-14.387,12.984-26.319c0,0-9.826,1.755-13.686,7.721s-6.667,17.545-6.667,17.545Z" transform="translate(-471.74 -716.842)" fill="#1a7a83"/>
            <path id="Path_82" d="M502.762,822.986s-4.563-24.214-17.193-25.267c0,0,6.317,8.072,7.721,15.09a89.931,89.931,0,0,1,1.4,15.09Z" transform="translate(-468.02 -716.655)" fill="#5cc2ad"/>
          </g>
          <g id="Group_13" transform="translate(19.65 104.229)">
            <path id="Path_83" d="M528.663,830.66v56.5A20.414,20.414,0,0,1,508.31,907.51a20.193,20.193,0,0,1-6.456-1.058,20.43,20.43,0,0,1-13.9-19.3v-56.5a6.687,6.687,0,0,1,6.667-6.668H522A6.687,6.687,0,0,1,528.663,830.66Z" transform="translate(-487.951 -823.992)" fill="#afafd5"/>
            <path id="Path_84" d="M517.605,830.132v56.5a20.431,20.431,0,0,1-15.752,19.825,20.429,20.429,0,0,1-13.9-19.3v-56.5a6.687,6.687,0,0,1,6.667-6.668h18.909A6.687,6.687,0,0,1,517.605,830.132Z" transform="translate(-487.951 -823.992)" fill="#dcdcf1"/>
          </g>
        </g>
        <path id="Path_85" d="M644.807,414.275H637.88a77.178,77.178,0,0,0-37.317-51.392h19.5a15.418,15.418,0,1,0,0-10.279h-42.4v-5.139a5.137,5.137,0,0,0-5.139-5.139H551.961a5.136,5.136,0,0,0-5.14,5.139v5.139h-42.4a15.418,15.418,0,1,0,0,10.279h19.838A77.654,77.654,0,0,0,486.6,414.275h-6.929a5.135,5.135,0,0,0-5.139,5.139V439.97a5.135,5.135,0,0,0,5.139,5.14h20.557a5.137,5.137,0,0,0,5.139-5.14V419.415a5.137,5.137,0,0,0-5.139-5.139h-3.12A67.26,67.26,0,0,1,546.821,364.9v3.12a5.135,5.135,0,0,0,5.14,5.139h20.556a5.136,5.136,0,0,0,5.139-5.139V364.9a67.254,67.254,0,0,1,49.715,49.373h-3.12a5.135,5.135,0,0,0-5.139,5.139V439.97a5.135,5.135,0,0,0,5.139,5.14h20.557a5.136,5.136,0,0,0,5.139-5.14V419.414a5.136,5.136,0,0,0-5.139-5.139Z" transform="translate(-283.376 -211.261)" fill="#fff"/>
        <path id="Path_86" d="M904.967,377.852l-3.388.036a37.732,37.732,0,0,0-18.5-24.93l9.53-.1a7.537,7.537,0,1,0-.052-5.024l-20.726.215-.026-2.512a2.51,2.51,0,0,0-2.539-2.486l-10.049.1a2.511,2.511,0,0,0-2.486,2.538l.027,2.512-20.727.216a7.537,7.537,0,1,0,.052,5.024l9.7-.1a37.944,37.944,0,0,0-18.145,25.313l-3.386.035a2.511,2.511,0,0,0-2.486,2.538l.105,10.048a2.512,2.512,0,0,0,2.539,2.486l10.048-.1a2.511,2.511,0,0,0,2.485-2.538l-.1-10.048a2.511,2.511,0,0,0-2.538-2.486l-1.526.016a32.878,32.878,0,0,1,24.049-24.387l.016,1.525a2.51,2.51,0,0,0,2.538,2.486l10.048-.105a2.51,2.51,0,0,0,2.486-2.538l-.016-1.525a32.877,32.877,0,0,1,24.553,23.879l-1.525.016a2.51,2.51,0,0,0-2.486,2.538l.1,10.048a2.51,2.51,0,0,0,2.538,2.485l10.047-.1a2.507,2.507,0,0,0,2.487-2.538l-.1-10.048a2.51,2.51,0,0,0-2.539-2.484Z" transform="translate(-324.431 -182.123)" fill="#fff"/>
        <path id="Rectangle_20" d="M0,0H750V4.455H0Z" transform="translate(0 609.845)" fill="#4f216c"/>
      </g>
    </g>
  </g>
</svg>
